<svg xmlns="http://www.w3.org/2000/svg" viewBox="0 0 1075.63 1000">
    <path fill="#3e4347" d="M88.03 176.37H189.55V926.66H88.03z"/>
    <path d="M258.76 1000.03H18.69V978.08A51.46 51.46 0 0170.15 926.62H207.3A51.46 51.46 0 01258.76 978.08V1000.03z"
          fill="#5a5f63"/>
    <path fill="#e24b4b" d="M138.72-.03A100.84 100.84 0 10138.72 201.65 100.84 100.84 0 10138.72-.03z"/>
    <path fill="#3e4347" d="M886.22 176.37H987.73V926.66H886.22z"/>
    <path d="M1056.94 1000.03H816.87V978.08A51.46 51.46 0 01868.34 926.62H1005.48A51.46 51.46 0 011056.94 978.08V1000.03z"
          fill="#5a5f63"/>
    <path fill="#e24b4b" d="M936.9-.03A100.84 100.84 0 10936.9 201.65 100.84 100.84 0 10936.9-.03z"/>
    <path d="M1042.02 622.92H33.62A33.63 33.63 0 010 589.32V293.17A33.63 33.63 0 0133.61 259.56H1042.01A33.63 33.63 0 011075.64 293.18V589.3A33.6 33.6 0 011042.02 622.92z"
          fill="#ffd83b"/>
    <path fill="#3f4347"
          d="M198.62 293.21L121.32 589.34H51.05L128.37 293.21zM364 293.21L286.69 589.34H216.1L293.75 293.21zM529.04 293.21L451.74 589.34H381.47L458.79 293.21zM694.08 293.21L616.78 589.34H546.51L623.83 293.21zM859.46 293.21L782.16 589.34H711.55L788.87 293.21zM1024.5 293.21L947.2 589.34H876.93L954.25 293.21z"/>
</svg>
