<?xml version="1.0" encoding="UTF-8"?>
<svg width="271.88mm" height="207.75mm" version="1.1" viewBox="0 0 271.88 207.75" xmlns="http://www.w3.org/2000/svg">
    <g transform="translate(-145.27 63.054)">
        <path d="m241.09-37.604c-5.8868 2.9937-31.455 10.191-31.963 17.889-.49742 7.536 32.157 13.237 37.376 15.063 11.234 3.9324 26.396 16.46 38.513 15.331 11.654-1.0858 21.112-17.615 29.837-24.552 19.42-15.441 36.375-19.61 2.0757-32.858-24.482-9.4555-53.134-2.5097-75.838 9.1271"
              fill="#c1deeb"/>
        <path d="m241.09-42.809c-5.8868 2.9937-31.455 10.191-31.963 17.889-.49742 7.5357 32.157 13.237 37.376 15.063 11.234 3.9324 26.396 16.46 38.513 15.331 11.654-1.0858 21.112-17.615 29.837-24.552 19.42-15.441 36.375-19.61 2.0757-32.858-24.482-9.4555-53.134-2.5097-75.838 9.1271"
              fill="#f4fafd"/>
        <path d="m382.64-38.71h-202.85v-7.7784h202.85z" fill="#bd5a38"/>
        <path d="m261.55-29.532v10.611h-32.622v-10.611h3.5507v-.000264h25.961v.000264zm71.945 0v10.611h-32.622v-10.611h3.1112v-.000264h25.725v.000264zm77.269-9.7624-1.3296-1.9681-7.2397-10.726c-.42368-.6283-1.1409-1.0104-1.9001-1.0104h-7.1871c-1.2721 0-2.298 1.0312-2.298 2.298v1.01h-5.8787c-1.2668 0-2.2927 1.0315-2.2927 2.2983v.90488h-10.699v-6.6054c0-2.1879-1.7748-3.9628-3.9628-3.9628h-1.7766v-.000344h-4.2256v.000344h-18.514v-.000344h-4.2256v.000344h-1.7766c-2.1883 0-3.9628 1.7748-3.9628 3.9628v6.6054h-32.622v-6.6054c0-2.1879-1.7745-3.9628-3.9628-3.9628h-1.7762v-.000344h-4.2259v.000344h-19.393v-.000344h-4.2256v.000344h-1.7769c-2.1879 0-3.9624 1.7748-3.9624 3.9628v6.6054h-32.622v-6.6054c0-2.1879-1.7745-3.9628-3.9628-3.9628h-1.7766v-.000344h-4.2256v.000344h-18.514v-.000344h-4.2256v.000344h-1.7766c-2.1879 0-3.9628 1.7748-3.9628 3.9628v6.6054h-10.699v-.90488c0-1.2668-1.0262-2.2983-2.2927-2.2983h-5.8787v-1.01c0-1.2668-1.0259-2.298-2.298-2.298h-7.1872c-.75917 0-1.476.38206-1.9001 1.0104l-7.2397 10.726-1.3296 1.9681c-.52352.7747-.52352 1.7953 0 2.57l8.5693 12.694c.42404.6283 1.1409 1.0104 1.9001 1.0104h7.1872c1.2721 0 2.298-1.0312 2.298-2.298v-1.01h5.8787c1.2665 0 2.2927-1.0315 2.2927-2.2983v-.90593h7.149v.000265h3.5504v84.406c-1.4041 3.1034-2.0271 6.1034-1.8468 8.9556l.12982 2.013c.14005 2.1103.71684 4.185 1.717 6.2001v20.728c0 1.5286.87453 2.921 2.2514 3.5803l88.476 42.349 88.476-42.349c1.3769-.65935 2.2511-2.0518 2.2511-3.5804v-17.713l1.2033-1.4097c.50871-.59549.74613-1.3765.65582-2.1548-.0907-.77822-.5013-1.4834-1.1335-1.9466l-.70767-.51859.11395-.13335c.25435-.29774.37324-.68826.32773-1.0774-.0399-.34113-.20779-.64876-.45967-.87701v-27.35c.1778-.26423.35524-.52422.53234-.77928.71085-1.0241.66393-2.3936-.11536-3.3669l-.25929-.32385c-.0497-.06209-.10407-.11853-.15769-.17568v-64.477h3.315v-.000264h7.3843v.90593c0 1.2668 1.0259 2.2983 2.2927 2.2983h5.8787v1.01c0 1.2668 1.0259 2.298 2.298 2.298h7.1871c.75918 0 1.4764-.38206 1.9001-1.0104l8.5693-12.694c.52353-.7747.52353-1.7953 0-2.57"
              fill="#02181e" opacity=".2"/>
        <path d="m261.55-29.532v10.611h-32.622v-10.611h3.5507v-.000264h25.961v.000264zm71.945 0v10.611h-32.622v-10.611h3.1112v-.000264h25.725v.000264zm77.269-9.7624-1.3296-1.9681-7.2397-10.726c-.42368-.6283-1.1409-1.0104-1.9001-1.0104h-7.1871c-1.2721 0-2.298 1.0312-2.298 2.298v1.01h-5.8787c-1.2668 0-2.2927 1.0315-2.2927 2.2983v.90488h-10.699v-6.6054c0-2.1879-1.7748-3.9628-3.9628-3.9628h-1.7766v-.000344h-4.2256v.000344h-18.514v-.000344h-4.2256v.000344h-1.7766c-2.1883 0-3.9628 1.7748-3.9628 3.9628v6.6054h-32.622v-6.6054c0-2.1879-1.7745-3.9628-3.9628-3.9628h-1.7762v-.000344h-4.2259v.000344h-19.393v-.000344h-4.2256v.000344h-1.7769c-2.1879 0-3.9624 1.7748-3.9624 3.9628v6.6054h-32.622v-6.6054c0-2.1879-1.7745-3.9628-3.9628-3.9628h-1.7766v-.000344h-4.2256v.000344h-18.514v-.000344h-4.2256v.000344h-1.7766c-2.1879 0-3.9628 1.7748-3.9628 3.9628v6.6054h-10.699v-.90488c0-1.2668-1.0262-2.2983-2.2927-2.2983h-5.8787v-1.01c0-1.2668-1.0259-2.298-2.298-2.298h-7.1872c-.75917 0-1.476.38206-1.9001 1.0104l-7.2397 10.726-1.3296 1.9681c-.52352.7747-.52352 1.7953 0 2.57l8.5693 12.694c.42404.6283 1.1409 1.0104 1.9001 1.0104h7.1872c1.2721 0 2.298-1.0312 2.298-2.298v-1.01h5.8787c1.2665 0 2.2927-1.0315 2.2927-2.2983v-.90593h7.149v.000265h3.5504v84.406c-1.4041 3.1034-2.0271 6.1034-1.8468 8.9556l.12982 2.013c.14005 2.1103.71684 4.185 1.717 6.2001v20.728c0 1.5286.87453 2.921 2.2514 3.5803l88.476 42.349 88.476-42.349c1.3769-.65935 2.2511-2.0518 2.2511-3.5804v-17.713l1.2033-1.4097c.50871-.59549.74613-1.3765.65582-2.1548-.0907-.77822-.5013-1.4834-1.1335-1.9466l-.70767-.51859.11395-.13335c.25435-.29774.37324-.68826.32773-1.0774-.0399-.34113-.20779-.64876-.45967-.87701v-27.35c.1778-.26423.35524-.52422.53234-.77928.71085-1.0241.66393-2.3936-.11536-3.3669l-.25929-.32385c-.0497-.06209-.10407-.11853-.15769-.17568v-64.477h3.315v-.000264h7.3843v.90593c0 1.2668 1.0259 2.2983 2.2927 2.2983h5.8787v1.01c0 1.2668 1.0259 2.298 2.298 2.298h7.1871c.75918 0 1.4764-.38206 1.9001-1.0104l8.5693-12.694c.52353-.7747.52353-1.7953 0-2.57z"
              fill="none" opacity=".2" stroke="#02181e" stroke-linejoin="round" stroke-miterlimit="10"
              stroke-width="11.994"/>
        <path d="m352.38-3.1886-.7306-1.0813-3.9769-5.8921c-.23284-.34502-.62689-.55492-1.0439-.55492h-3.9479c-.69885 0-1.2622.56656-1.2622 1.2622v.55527h-3.2293c-.69604 0-1.2594.56621-1.2594 1.2622v.49706h-5.878v-3.6283c0-1.2023-.97473-2.177-2.1766-2.177h-95.324c-1.2019 0-2.1766.97472-2.1766 2.177v3.6283h-5.8776v-.49706c0-.69603-.56374-1.2622-1.2594-1.2622h-3.2293v-.55527c0-.69568-.56374-1.2622-1.2626-1.2622h-3.9479c-.41699 0-.81069.2099-1.0435.55492l-3.9772 5.8921-.73025 1.0813c-.28751.42545-.28751.98602 0 1.4118l4.7075 6.9734c.23283.34502.62653.55492 1.0435.55492h3.9479c.69885 0 1.2626-.56656 1.2626-1.2626v-.55492h3.2293c.69568 0 1.2594-.56656 1.2594-1.2622v-.49777h3.9271v.000265h1.9505v67.184c0 .83926.48013 1.6044 1.2365 1.9667l48.603 23.263 48.603-23.263c.75636-.36231 1.2361-1.1275 1.2361-1.9667v-67.184h1.8214v-.000265h4.0566v.49777c0 .69568.56338 1.2622 1.2594 1.2622h3.2293v.55492c0 .69603.56339 1.2626 1.2622 1.2626h3.9479c.41698 0 .81103-.2099 1.0439-.55492l4.7075-6.9734c.28752-.4258.28752-.98637 0-1.4118"
              fill="#02181e" opacity=".2"/>
        <path d="m352.38-3.1886-.7306-1.0813-3.9769-5.8921c-.23284-.34502-.62689-.55492-1.0439-.55492h-3.9479c-.69885 0-1.2622.56656-1.2622 1.2622v.55527h-3.2293c-.69604 0-1.2594.56621-1.2594 1.2622v.49706h-5.878v-3.6283c0-1.2023-.97473-2.177-2.1766-2.177h-95.324c-1.2019 0-2.1766.97472-2.1766 2.177v3.6283h-5.8776v-.49706c0-.69603-.56374-1.2622-1.2594-1.2622h-3.2293v-.55527c0-.69568-.56374-1.2622-1.2626-1.2622h-3.9479c-.41699 0-.81069.2099-1.0435.55492l-3.9772 5.8921-.73025 1.0813c-.28751.42545-.28751.98602 0 1.4118l4.7075 6.9734c.23283.34502.62653.55492 1.0435.55492h3.9479c.69885 0 1.2626-.56656 1.2626-1.2626v-.55492h3.2293c.69568 0 1.2594-.56656 1.2594-1.2622v-.49777h3.9271v.000265h1.9505v67.184c0 .83926.48013 1.6044 1.2365 1.9667l48.603 23.263 48.603-23.263c.75636-.36231 1.2361-1.1275 1.2361-1.9667v-67.184h1.8214v-.000265h4.0566v.49777c0 .69568.56338 1.2622 1.2594 1.2622h3.2293v.55492c0 .69603.56339 1.2626 1.2622 1.2626h3.9479c.41698 0 .81103-.2099 1.0439-.55492l4.7075-6.9734c.28752-.4258.28752-.98637 0-1.4118z"
              fill="none" opacity=".2" stroke="#02181e" stroke-miterlimit="10" stroke-width="7.0556"/>
        <path d="m382.64-29.533h-202.85v-9.1765h202.85z" fill="#662e2a"/>
        <path d="m179.79-36.034v7.4073c0 1.2665-1.0262 2.298-2.293 2.298h-7.8624c-1.2718 0-2.298-1.0315-2.298-2.298v-7.4073c0 1.2668 1.0262 2.298 2.298 2.298h7.8624c1.2668 0 2.293-1.0312 2.293-2.298"
              fill="#a84502"/>
        <path d="m179.79-47.393v11.359c0 1.2668-1.0262 2.298-2.293 2.298h-7.8624c-1.2718 0-2.298-1.0312-2.298-2.298v-11.359c0-1.2668 1.0262-2.298 2.298-2.298h7.8624c1.2668 0 2.293 1.0312 2.293 2.298"
              fill="#d86212"/>
        <path d="m171.62-31.825v6.5066c0 1.2668-1.0262 2.298-2.2984 2.298h-7.1871c-.75883 0-1.476-.38206-1.9001-1.0104l-8.569-12.694c-.52352-.7747-.52352-1.7953 0-2.57l1.3296-1.9681 7.2394 10.721c.42404.63324 1.1412 1.01 1.9001 1.01h7.1871c1.2721 0 2.2984-1.0259 2.2984-2.2927"
              fill="#cf9010"/>
        <path d="m171.62-50.701v18.876c0 1.2668-1.0262 2.2927-2.2984 2.2927h-7.1871c-.75883 0-1.476-.37677-1.9001-1.01l-7.2394-10.721 7.2394-10.726c.42404-.6283 1.1412-1.0104 1.9001-1.0104h7.1871c1.2721 0 2.2984 1.0312 2.2984 2.298"
              fill="#ffb726"/>
        <path d="m164.13-44.381c0-1.4817-1.2012-2.6825-2.6829-2.6825-1.4817 0-2.6825 1.2009-2.6825 2.6825 0 1.4817 1.2009 2.6825 2.6825 2.6825 1.4817 0 2.6829-1.2009 2.6829-2.6825"
              fill="#ffeea5"/>
        <path d="m382.64-36.034v7.4073c0 1.2665 1.0259 2.298 2.2927 2.298h7.8627c1.2718 0 2.298-1.0315 2.298-2.298v-7.4073c0 1.2668-1.0262 2.298-2.298 2.298h-7.8627c-1.2668 0-2.2927-1.0312-2.2927-2.298"
              fill="#a84502"/>
        <path d="m382.64-47.393v11.359c0 1.2668 1.0259 2.298 2.2927 2.298h7.8627c1.2718 0 2.298-1.0312 2.298-2.298v-11.359c0-1.2668-1.0262-2.298-2.298-2.298h-7.8627c-1.2668 0-2.2927 1.0312-2.2927 2.298"
              fill="#d86212"/>
        <path d="m390.81-31.825v6.5066c0 1.2668 1.0259 2.298 2.298 2.298h7.1875c.75882 0 1.476-.38206 1.8997-1.0104l8.5693-12.694c.52353-.7747.52353-1.7953 0-2.57l-1.3296-1.9681-7.2397 10.721c-.42369.63324-1.1409 1.01-1.8997 1.01h-7.1875c-1.2721 0-2.298-1.0259-2.298-2.2927"
              fill="#cf9010"/>
        <path d="m390.81-50.701v18.876c0 1.2668 1.0259 2.2927 2.298 2.2927h7.1875c.75882 0 1.476-.37677 1.8997-1.01l7.2397-10.721-7.2397-10.726c-.42369-.6283-1.1409-1.0104-1.8997-1.0104h-7.1875c-1.2721 0-2.298 1.0312-2.298 2.298"
              fill="#ffb726"/>
        <path d="m398.3-44.381c0-1.4817 1.2012-2.6825 2.6829-2.6825s2.6825 1.2009 2.6825 2.6825c0 1.4817-1.2008 2.6825-2.6825 2.6825s-2.6829-1.2009-2.6829-2.6825"
              fill="#ffeea5"/>
        <path d="m232.48-29.532h-45.545v-16.956h45.545z" fill="#662e2a"/>
        <path d="m303.99-29.532h-45.545v-16.956h45.545z" fill="#662e2a"/>
        <path d="m375.26-29.532h-45.545v-16.956h45.545z" fill="#662e2a"/>
        <path d="m364.09 90.326-82.875 39.668-82.875-39.668v-139.53h22.739v38.135h48.327v-38.135h23.618v38.135h48.327v-38.135h22.739zm3.889-147.38h-30.518c-2.1883 0-3.9628 1.7748-3.9628 3.9628v34.172h-32.622v-34.172c0-2.1879-1.7745-3.9628-3.9624-3.9628h-31.398c-2.1883 0-3.9628 1.7748-3.9628 3.9628v34.172h-32.622v-34.172c0-2.1879-1.7745-3.9628-3.9628-3.9628h-30.518c-2.1879 0-3.9628 1.7748-3.9628 3.9628v145.86c0 1.5286.87454 2.921 2.2511 3.5807l88.476 42.349 88.476-42.349c1.3765-.6597 2.2507-2.0521 2.2507-3.5807v-145.86c0-2.1879-1.7745-3.9628-3.9628-3.9628"
              fill="#dd6819"/>
        <path d="m364.09-57.056v147.38l-82.875 39.668-82.875-39.668v-147.38h22.739v45.986h48.327v-45.986h23.618v45.986h48.327v-45.986z"
              fill="#e12231"/>
        <path d="m364.09 29.982v60.344l-82.875 39.668-82.875-39.668v-60.58l20.316-20.316 22.357 22.363 39.747-39.747 40.082 40.087 22.697-22.703z"
              fill="#aa053b"/>
        <path d="m291.72 92.202h-21.015c-2.237 0-4.0502 1.8133-4.0502 4.0502v12.745c0 2.2373 1.8133 4.0506 4.0502 4.0506h21.015c2.237 0 4.0502-1.8133 4.0502-4.0506v-12.745c0-2.237-1.8133-4.0502-4.0502-4.0502"
              fill="#39b54a"/>
        <path d="m270.71 93.962c-1.2626 0-2.2899 1.0273-2.2899 2.2895v12.746c0 1.2622 1.0273 2.2892 2.2899 2.2892h21.015c1.2626 0 2.2895-1.0269 2.2895-2.2892v-12.746c0-1.2622-1.0269-2.2895-2.2895-2.2895zm21.015 20.846h-21.015c-3.2043 0-5.8113-2.6067-5.8113-5.8106v-12.746c0-3.2043 2.607-5.811 5.8113-5.811h21.015c3.2043 0 5.811 2.6067 5.811 5.811v12.746c0 3.2039-2.6067 5.8106-5.811 5.8106"
              fill="#c9c9c9"/>
        <path d="m291.72 90.999h-21.015c-2.237 0-4.0502 1.8133-4.0502 4.0502v12.746c0 2.237 1.8133 4.0502 4.0502 4.0502h21.015c2.237 0 4.0502-1.8133 4.0502-4.0502v-12.746c0-2.237-1.8133-4.0502-4.0502-4.0502"
              fill="#39b54a"/>
        <path d="m270.71 92.055c-1.651 0-2.994 1.343-2.994 2.9937v12.746c0 1.6506 1.343 2.9937 2.994 2.9937h21.015c1.6506 0 2.9937-1.343 2.9937-2.9937v-12.746c0-1.6506-1.343-2.9937-2.9937-2.9937zm21.015 20.846h-21.015c-2.8159 0-5.1072-2.2906-5.1072-5.1065v-12.746c0-2.8159 2.2913-5.1065 5.1072-5.1065h21.015c2.8159 0 5.1065 2.2906 5.1065 5.1065v12.746c0 2.8159-2.2906 5.1065-5.1065 5.1065"
              fill="#fff"/>
        <path d="m273.28 106.26c0 .4886-.14958.86007-.44908 1.1151-.29986.25506-.64382.38276-1.0319.38276-.19967 0-.38876-.0335-.56621-.0998-.17709-.0667-.33549-.16334-.47378-.2914-.13899-.12735-.24976-.28292-.33302-.46602-.0833-.18274-.12488-.39616-.12488-.64064 0-.23283.0416-.44097.12488-.62406.0833-.18274.19403-.33514.33302-.45756.13829-.12206.29669-.21625.47378-.28293.17745-.0667.36654-.0998.56621-.0998.38806 0 .73202.12771 1.0319.38276.2995.25541.44908.6156.44908 1.0816"
              fill="#fff"/>
        <path d="m280.67 97.506c0 .39935-.1277.71543-.38276.94862-.25541.23283-.56021.34925-.91546.34925-.35489 0-.65722-.11642-.90664-.34925-.24977-.23319-.37465-.54927-.37465-.94862 0-.41028.12488-.73237.37465-.9652.24942-.23283.55175-.3496.90664-.3496.35525 0 .66005.11677.91546.3496.25506.23283.38276.55492.38276.9652m3.0452 9.7353c-.42157.19967-.81809.33549-1.1896.40781-.37182.072-.71296.10795-1.0238.10795-.53234 0-.97896-.0776-1.3395-.23284-.36054-.15522-.64876-.37994-.86537-.6738-.21625-.29422-.36865-.65193-.45755-1.0735-.0889-.42156-.133-.90416-.133-1.4478v-2.879h-2.1636v-1.6976h4.2104v4.8429c0 .46602.0857.8128.25788 1.04.1718.22754.45755.34114.8569.34114.18873 0 .41627-.0251.68262-.0748.266-.0501.5655-.1524.89853-.30798z"
              fill="#fff"/>
        <path d="m286.83 103.66c0 .69885.12488 1.2647.37465 1.6976.24941.4325.65123.64876 1.2062.64876.53234 0 .93451-.21626 1.2065-.64876.27164-.43286.40781-.99872.40781-1.6976s-.12489-1.2619-.37465-1.6894c-.24941-.42686-.65194-.6403-1.2062-.6403-.53269 0-.93486.21344-1.2065.6403-.27199.42756-.40781.9906-.40781 1.6894m5.292-.0166c0 .62124-.0889 1.1843-.26635 1.6891-.1778.50483-.42721.94015-.74895 1.3063-.32173.36583-.70731.64875-1.1568.84843-.44909.20002-.95145.29951-1.5057.29951-.55527 0-1.0569-.0995-1.506-.29951-.44944-.19968-.83784-.4826-1.1652-.84843-.32738-.36619-.57962-.80151-.75706-1.3063-.1778-.50482-.26635-1.0679-.26635-1.6891 0-.60995.0914-1.1673.27446-1.6729.18344-.50447.4385-.93698.76553-1.2975.32738-.36054.71825-.63817 1.1733-.83255.45508-.19368.94862-.29104 1.4813-.29104.54328 0 1.0396.0974 1.4891.29104.44943.19438.83749.47201 1.1652.83255.32703.36054.57926.79305.75706 1.2975.17745.50553.26635 1.0629.26635 1.6729"
              fill="#fff"/>
        <path d="m228.93-53.093v21.201c-2.6123-.4505-5.2345-1.0682-7.8521-1.7276v-23.436h-22.739v24.164c-2.0676 1.4915-4.4965 3.3867-7.8521 5.5538v-25.755c0-2.1879 1.7748-3.9628 3.9628-3.9628h30.518c2.1883 0 3.9628 1.7748 3.9628 3.9628"
              fill="#ffad29"/>
        <path d="m300.88-53.093v19.222c-2.6645-.19897-5.2137-.5969-7.8521-1.3614v-21.823h-23.618v17.196c-2.5915.47625-5.2402 1.1568-7.8521 1.9315v-15.165c0-2.1879 1.7745-3.9628 3.9628-3.9628h31.398c2.1879 0 3.9624 1.7748 3.9624 3.9628"
              fill="#ffad29"/>
        <path d="m371.94-53.093v20.75c-2.4444-.97861-5.0094-1.9001-7.8518-2.769v-21.944h-22.739v19.813c-2.5703.33479-5.2088.76412-7.8521 1.209v-17.06c0-2.1879 1.7745-3.9628 3.9624-3.9628h30.518c2.1883 0 3.9628 1.7748 3.9628 3.9628"
              fill="#ffad29"/>
        <path d="m271.52-8.9565h-52.552v-48.1h4.2256v43.874h44.101v-43.874h4.2259z" fill="#760d28"/>
        <path d="m343.46-8.9565h-52.552v-48.1h4.2256v43.874h44.101v-43.874h4.2259z" fill="#760d28"/>
        <path d="m198.34 46.323v38.569c-2.7062-.5708-5.3446-1.5392-7.8518-2.7432v-36.444c1.5494-1.5074 4.1688-4.07 5.4042-5.3107 0 0 .30692 2.9968 2.4476 5.9284"
              fill="#b54823"/>
        <path d="m371.94 26.107v57.304c-2.5284 2.0256-5.0356 2.9104-7.8518 3.1563v-57.634c2.4652-1.0679 5.2765-2.141 7.8518-2.8268"
              fill="#b54823"/>
        <path d="m281.21 132.34-84.988-40.68v-148.71h4.2256v146.05l80.762 38.657 80.762-38.657v-146.05h4.2259v148.71z"
              fill="#760d28"/>
        <path d="m220.45 76.161c-9.4971-.00079-23.503-7.3251-24.094-7.6369-.58702-.30903-.87842-.98637-.69991-1.6252l4.6122-16.493c.0494-.17604.1323-.34149.24483-.48578l8.0804-10.389c.2667-.34326.67698-.54399 1.1116-.54399h5.9238c.66287 0 1.2361.46285 1.3765 1.1109.83044 3.8361 2.19 8.4187 2.89 9.1257.13335.13299.35736.32808.6477.58314 3.0716 2.7037 12.42 10.93 8.5774 21.445-.81845 2.2398-2.987 4.91-8.6695 4.91z"
              fill="#760d28"/>
        <path d="m215.63 37.578h-5.9235c-.86925 0-1.6902.40146-2.2239 1.0876l-8.0804 10.39c-.22437.28893-.39053.61842-.4893.97085l-4.6119 16.493c-.35736 1.2781.22543 2.6321 1.3995 3.2508.60396.31855 14.909 7.7996 24.751 7.7996 6.4971 0 9.0205-3.1732 9.9935-5.8353 1.7826-4.8768 1.1098-10.081-1.9452-15.05-2.3477-3.8192-5.5069-6.5987-7.0249-7.9347-.19297-.17004-.40746-.35877-.52317-.46602-.5842-.88512-1.7709-4.7974-2.5682-8.4836-.28046-1.2965-1.427-2.2218-2.7534-2.2218m0 2.8173s1.8083 8.3615 3.2706 9.8238c1.4626 1.4626 12.802 9.8676 8.8985 20.548-1.0686 2.9235-3.858 3.985-7.3477 3.985-9.2579 0-23.437-7.4747-23.437-7.4747l4.6122-16.492 8.0804-10.39h5.9235"
              fill="#760d28"/>
        <path d="m244.04 43.285c-2.2895 9.217-2.5068 9.7956-2.2567 10.045.24976.24976 4.3459 6.1574 4.3459 6.1574l-.55421 4.4873-2.6691 4.8472 8.3083 1.246 10.449 1.1349 5.4091-6.1909-1.5706-20.4z"
              fill="#760d28"/>
        <path d="m242.82 52.381c.008.009.0173.0198.0282.0324-.009-.0109-.0187-.0219-.0282-.0324m2.2927 15.349 6.307.94545 9.6629 1.0492 4.5367-5.1932-1.4305-18.589-19.068-1.1783c-.30691 1.2326-.57185 2.2909-.79939 3.2004-.64347 2.5714-1.0456 4.1794-1.1719 4.8415.46179.62407 1.5318 2.1269 4.1342 5.8798.19756.28434.28328.63147.24024.97508l-.55421 4.4877c-.0219.1778-.0776.34961-.16404.50659zm16.547 4.8828c-.0504 0-.1009-.003-.15205-.008l-10.449-1.1352-8.3651-1.2531c-.45579-.0684-.84949-.3556-1.0541-.7687-.20426-.41346-.19333-.90029.0289-1.3042l2.5382-4.609.45508-3.6848c-1.735-2.4987-3.5959-5.1516-3.9197-5.564-.72496-.72743-.69638-.84031.84596-7.0044.29422-1.1769.65123-2.6032 1.0816-4.3349.16369-.65969.76341-1.113 1.4538-1.0661l21.462 1.3264c.70097.0434 1.2633.59726 1.3176 1.2979l1.5702 20.401c.0286.37677-.0949.74965-.3436 1.0347l-5.4092 6.1909c-.26952.30798-.65687.48225-1.0612.48225"
              fill="#760d28"/>
        <path d="m302.49 45.554s-6.7155 12.703-6.7155 13.156c0 .45367 2.1526 8.6367 2.1526 8.6367h20.274s4.5441-11.609 4.7981-11.863.52353-6.4954.52353-7.2097c0-.71402-6.6305-4.989-7.4158-4.989-.78528 0-13.617 2.2684-13.617 2.2684"
              fill="#760d28"/>
        <path d="m315.85 44.664m6.1461 9.8249c0 8e-4-.004.002-.004.002 0-.00079 0-.002.004-.002m-.0808.0882c-.11183.13335-.17427.26141-.20673.34326.0952-.18556.15699-.28081.20673-.34326m-22.908 11.362h18.226c3.0642-7.8162 4.0513-10.179 4.4566-10.982.1591-.80222.36336-4.7699.40851-6.2452-1.0724-1.0051-5.0578-3.5666-6.1309-4.0044-1.2125.14182-7.9738 1.3056-12.561 2.1135-2.7016 5.1185-5.5728 10.663-6.1863 12.027.22542 1.0414 1.0753 4.3663 1.7868 7.0912m19.187 2.8173h-20.274c-.63994 0-1.1994-.4311-1.3621-1.0502-2.1992-8.3594-2.1992-8.7888-2.1992-8.9951 0-.43039 0-.80257 6.8792-13.815.20249-.38417.57221-.65334.99977-.72884 4.8376-.85513 13.072-2.2895 13.863-2.2895.31397 0 1.0488 0 4.7777 2.4592 4.0464 2.6688 4.0464 3.2858 4.0464 3.9384 0 .29669-.0106 7.2739-.93487 8.2046.13159-.13229.19721-.25259.20426-.26599-.35524.66851-3.0639 7.499-4.6881 11.647-.21131.5401-.73201.89535-1.3116.89535"
              fill="#760d28"/>
        <path d="m356.55 56.507-4.3261 5.1082-3.0275 3.0738 4.0774 3.7454 8.9863 1.1994 3.2279-3.9261z" fill="#760d28"/>
        <path d="m352.22 61.615h.007zm1.676 5.4815 7.7696 1.0372 1.9308-2.3481-6.979-7.184-3.3225 3.9236c-.0229.0268-.0466.0529-.0713.078l-2.0041 2.0348zm8.3601 3.9455c-.0621 0-.12418-.004-.18662-.0124l-8.986-1.1994c-.2861-.0381-.55386-.16333-.76659-.35877l-4.0778-3.7451c-.28117-.25859-.44556-.62018-.45509-1.0022-.01-.38206.13617-.75177.40464-1.0238l2.9905-3.0364 4.2915-5.0676c.25683-.30304.62971-.48366 1.0269-.49742.40393-.006.78176.14182 1.0583.42616l8.9383 9.2008c.49989.51435.5334 1.3222.078 1.8761l-3.2283 3.9261c-.26952.32808-.66992.514-1.088.514"
              fill="#760d28"/>
        <path d="m209.91 51.975 6.6851-5.3319-6.6851-2.5866zm4.2785 8.5161c2.0842.94721 3.853 1.4273 5.2677 1.4273 1.3988 0 3.1055-.49918 5.0832-1.4848-.38064-1.4305-1.0873-2.5485-2.1428-3.3994-1.3099-1.0548-2.9288-1.5681-4.9498-1.5681-1.1282 0-2.22.13759-3.2583.40993zm-13.679-8.5968c-.95497 1.9477-1.4242 4.2534-1.4242 6.96 0 2.6705.50941 5.067 1.5176 7.1572zm18.882 14.108c1.9092 0 3.6802.29669 5.2843.88371.23424-.76659.38629-1.5275.45684-2.279-2.2362.82691-4.1698 1.2308-5.8709 1.2308-1.313 0-2.9626-.30904-5.0084-.94086v1.7974c1.7946-.46002 3.5165-.69215 5.1382-.69215m-15.72 4.8948c1.9396 1.9325 4.0407 3.2657 6.2745 3.9825v-17.318c-.0332.0169-.0667.0342-.0998.0515v2.9912c0 3.3045-.72707 5.557-2.2225 6.8866-.62336.53411-1.3338 1.1472-2.1509 1.8581-.53692.46531-1.1366.98178-1.8013 1.5476m10.518 4.3769c3.5003-.32068 6.3472-1.869 8.6395-4.6997-1.1818-.39088-2.3329-.58773-3.4368-.58773-1.2972 0-3.0441.33126-5.2028.98496zm-5.9461 5.6021c-6.5835 0-11.59-2.2881-14.88-6.8012-1.9255-2.6755-2.9954-5.473-3.1845-8.3203l-.12983-2.0122c-.23353-3.707 1.0178-7.722 3.7204-11.936 2.3386-3.6424 5.2165-6.6559 8.5538-8.9556l10.689-7.4496c.2413-.16828.52281-.2533.80539-.2533.23777 0 .4759.06033.69144.18133 3.8005 2.1403 7.245 3.2258 10.239 3.2258.30127 0 .59831-.0106.89253-.0328l3.8336-.26c.0318-.002.0639-.003.096-.003.60183 0 1.1419.38417 1.3353.96167l.0646.19438c.18909.56515.002 1.1889-.46778 1.5561l-7.5159 5.8801c6.7257 2.7386 10.131 7.1815 10.131 13.234v.32455c0 6.0251-2.8127 11.12-8.3601 15.142-4.893 3.5331-10.448 5.3238-16.513 5.3238"
              fill="#760d28"/>
        <path d="m215.6 72.033c1.9018-.51329 3.0896-.63782 3.7941-.63782.21167 0 .42581.008.64241.0257-1.3099 1.095-2.7834 1.8267-4.4365 2.2042zm-9.809-1.095c.2092-.18027.41169-.35525.60643-.52458.81562-.70908 1.5233-1.3201 2.1244-1.8348.006-.005.0116-.01.0173-.0148v4.2224c-.94474-.48119-1.8588-1.0961-2.7481-1.8482m9.809-13.92c.60008-.0952 1.2178-.14323 1.8496-.14323 1.6863 0 3.0166.41134 4.0665 1.257.52669.42439.94297.94332 1.2534 1.5656-1.5582.64982-2.6293.8121-3.3108.8121-.75036 0-1.9847-.18168-3.8587-.94474zm-4.2785-7.9682v-2.9379l2.48.95991zm2.4984-15.311c-.5655 0-1.1289.17004-1.6111.50588l-10.695 7.4545c-3.4798 2.3975-6.4876 5.5446-8.9274 9.3451-2.8688 4.4729-4.1945 8.7736-3.9412 12.784l.12982 2.0126c.20708 3.12 1.3652 6.1623 3.442 9.0484 3.58 4.9114 8.9694 7.3946 16.028 7.3946 6.3676 0 12.2-1.8807 17.336-5.5894 5.938-4.305 8.9461-9.7829 8.9461-16.285v-.32421c0-4.2975-1.664-9.8093-8.8575-13.544l5.7023-4.4609c.93909-.73448 1.3141-1.9808.93627-3.1118l-.0653-.19438c-.38594-1.155-1.4665-1.9244-2.6705-1.9244-.0639 0-.1277.0021-.19191.0067l-3.8245.25929c-.27481.0205-.54045.03-.80574.03-2.7485 0-5.9609-1.0241-9.5479-3.0448-.43039-.24236-.90699-.3623-1.3822-.3623m-1.0372 43.006c5.1851 0 9.2692-2.2691 12.251-6.8061-1.9449-.9077-3.8245-1.3614-5.6395-1.3614-1.6425 0-3.8463.45367-6.6114 1.3614v6.8061m6.4816-12.316c-1.5127 0-3.6523-.49635-6.417-1.4908v5.6392c2.3336-.77823 4.5152-1.1666 6.5468-1.1666 2.2899 0 4.3208.45367 6.0932 1.3614.73413-1.7283 1.1017-3.4357 1.1017-5.1209l-.12947-1.1021c-2.8522 1.2541-5.2504 1.88-7.1952 1.88m-7.9079 12.251v-21.196c-.82127.21696-1.7939.64841-2.9168 1.2965v3.8245c0 2.8522-.58349 4.7967-1.7505 5.8339-.60537.51858-1.3187 1.1338-2.1389 1.8471-.82127.71297-1.7935 1.5455-2.9168 2.4956 2.8945 3.2847 6.1359 5.2504 9.7229 5.8988m8.1022-13.353c1.8577 0 4.0841-.71261 6.6767-2.1389-.34643-2.2461-1.2965-3.9963-2.8522-5.2504-1.5554-1.2527-3.5003-1.88-5.8335-1.88-1.6429 0-3.1983.25964-4.6669.77823v6.5468c2.6352 1.2961 4.8613 1.9442 6.676 1.9442m-18.473 5.9637c.69074-.43144 1.0368-1.1448 1.0368-2.1392l-.12947-19.511c-2.8095 2.7227-4.2132 6.4611-4.2132 11.214 0 4.1063 1.1017 7.5844 3.3059 10.436m7.5188-14.39 10.89-8.6858-10.89-4.2132v12.899m5.3153-18.344c4.033 2.2719 7.6772 3.4075 10.93 3.4075.33655 0 .66816-.012.99624-.0363l3.8245-.25965.0653.19474-9.5289 7.4538c7.735 2.4211 11.603 6.6767 11.603 12.77v.3242c0 5.5742-2.5929 10.241-7.7784 14.001-4.6672 3.3704-9.8965 5.056-15.686 5.056-6.1369 0-10.718-2.0743-13.742-6.2226-1.7731-2.4634-2.7453-4.9911-2.9171-7.5844l-.12983-2.0091c-.21555-3.4135.95003-7.1081 3.5003-11.085 2.2468-3.4999 4.9689-6.3521 8.1675-8.5559l10.695-7.4545"
              fill="#760d28"/>
        <path d="m262.58 59.067v-12.413l-.1397-.20285-8.563 12.616zm-8.8332-16.11c-2.999 0-5.4289.85972-7.4284 2.6282-2.128 1.8235-3.1545 4.082-3.1545 6.9176 0 2.945 1.3166 5.6018 4.016 8.0864l7.1141-10.43c-.27128-.1718-.59161-.25646-.98601-.26599l-.94262.11783c-1.1638.12629-2.0888.81386-2.8494 2.1043-.25788.43744-.7239.69356-1.2136.69356-.12312 0-.24765-.0162-.37077-.0494-.61277-.16757-1.0379-.72425-1.0379-1.3592 0-2.4649.89324-4.4457 2.6557-5.8868 1.5582-1.2467 3.5772-1.874 6.0128-1.874 1.0686 0 2.0881.0787 3.0434.23495l.0508-.0766c-1.7029-.5588-3.3486-.84137-4.9096-.84137m4.8503 30.003 4.2422-3.4339v-3.1048h-14.119l-1.0354 1.5106zm10.317 8.0454c-.25576 0-.51223-.0692-.74012-.20991-2.1795-1.3466-3.7761-3.3793-4.7639-6.059l-7.8482 5.8593c-.24836.18556-.54469.28011-.84314.28011-.22472 0-.4505-.0536-.65723-.16299l-9.2047-4.8613c-1.2062-.64876-1.8112-.74472-2.0648-.74472-.0547 0-.12947 0-.26775.13829-.10337.10337-.13829.18768-.13829.33338v-8e-4c.002 0 .0261.19827.2293.72426.2861.74612.41875 1.3183.41875 1.8041 0 1.6828-1.1638 2.7697-2.9644 2.7697-1.3702 0-2.8346-.8128-2.8346-3.0942 0-1.5935.81844-3.6072 2.5019-6.156l5.1128-7.583c-3.9232-3.8679-6.089-7.6789-6.4414-11.341l-.13053-1.433c-.003-.0427-.006-.085-.006-.12771 0-4.0344 1.639-7.7668 4.8708-11.094 3.2505-3.2964 7.3607-4.9643 12.224-4.9643 4.4355 0 8.7394 1.2965 12.81 3.8569 2.1459-2.1636 4.5688-3.5765 7.2175-4.2076.10795-.02574.21731-.0381.32632-.0381.36865 0 .72848.14499.99589.4124l.12947.12982c.26881.26846.41769.63394.41275 1.0139-.005.37959-.16299.74119-.43815 1.003-.82762.78634-1.5388 1.5184-2.1142 2.1756-.54892.62688-.98177 1.1956-1.2866 1.6905-.85231 1.445-1.2548 2.9383-1.2171 4.5438l.51858 21.973c.0529 1.8898.33867 3.3824.83573 4.4006l.92957-.69745c.25223-.18909.54963-.28186.84455-.28186.37782 0 .75283.15134 1.0284.44555l.97225 1.0372c.266.28363.40287.66499.37818 1.0534-.0251.38841-.20955.74895-.50976.9966l-7.3896 6.0928c-.25859.21307-.57679.32173-.89641.32173"
              fill="#760d28"/>
        <path d="m250.83 67.83h10.602v1.0241l-3.0392 2.4603zm5.7069-10.172 4.6351-6.8298v6.8298zm-9.5522.7186c-1.6185-1.8524-2.4112-3.792-2.4112-5.8744 0-1.9145.5207-3.471 1.6224-4.801-.47025 1.1172-.70979 2.3583-.70979 3.6989 0 1.2704.8502 2.3837 2.0754 2.7178.24659.0674.49566.0998.74189.0998.97896 0 1.9114-.51259 2.4268-1.3868.19579-.33232.38665-.58526.56762-.77788zm28.737-25.091c-.21731 0-.43604.02506-.65264.07655-2.5788.61419-4.9534 1.8944-7.0845 3.8156-4.0188-2.3262-8.2529-3.5034-12.616-3.5034-5.2546 0-9.7024 1.809-13.22 5.3767-3.5108 3.6135-5.2836 7.6761-5.2836 12.09 0 .0854.004.17039.0116.25506l.12912 1.4259c.36019 3.7398 2.3869 7.5593 6.0339 11.388l-4.4619 6.6178c-1.881 2.8473-2.7499 5.05-2.7499 6.9547 0 3.1104 2.1311 4.5029 4.2429 4.5029 2.5749 0 4.373-1.7184 4.373-4.1787 0-.29421-.0317-.60184-.0974-.93239l9.0583 4.7847c.41346.21837.86537.32632 1.3152.32632.59654 0 1.1892-.18909 1.6859-.55986l6.4251-4.7967c1.0982 2.1548 2.6384 3.8509 4.6041 5.0652.45579.28187.96908.42087 1.4802.42087.63959 0 1.2756-.21732 1.7928-.64382l7.3896-6.0928c.60043-.4953.96944-1.2167 1.0192-1.9932.0501-.77647-.22366-1.5395-.756-2.1071l-.97226-1.0372c-.55104-.58808-1.3014-.89077-2.0563-.89077-.33373 0-.66851.0593-.98778.17886-.1076-.58667-.18838-1.3208-.21413-2.2373l-.51823-21.961c-.031-1.3261.30338-2.5675 1.022-3.7934.26317-.42334.64417-.92075 1.1331-1.4796.54716-.62477 1.2284-1.325 2.0246-2.0821.55104-.52317.86677-1.2467.87665-2.0062.01-.75953-.28787-1.4908-.82515-2.0281l-.12947-.12947c-.53446-.53446-1.2538-.82515-1.9921-.82515m-16.918 41.32 5.4451-4.408v-5.1855h-16.27l-2.3985 3.5003 13.223 6.0932m-7.584-14.131h12.77v-14.261l-1.2961-1.8796h-.51858l-10.955 16.14m-3.7592 2.2034 8.6208-12.64c-.64805-1.0372-1.5991-1.5558-2.8519-1.5558l-1.0375.12947c-1.5991.17357-2.8956 1.1024-3.889 2.7873 0-2.0306.71297-3.6297 2.1392-4.7967 1.2961-1.0368 3.0028-1.5554 5.1209-1.5554 1.3388 0 2.57.12983 3.6946.38877l1.5554-2.3333c-2.4631-1.0372-4.819-1.5558-7.0654-1.5558-3.3281 0-6.115.99448-8.3619 2.9817-2.42 2.074-3.6297 4.7318-3.6297 7.9728 0 3.7596 1.9008 7.1526 5.7044 10.177m28.261-26.576.12947.12947c-.86466.82162-1.5988 1.5776-2.2038 2.2687-.60572.6918-1.0806 1.3187-1.4263 1.8796-.99449 1.6856-1.4693 3.4579-1.4259 5.3153l.51858 21.974c.0864 3.0692.73448 5.1858 1.9445 6.3525l2.0747-1.5558.97225 1.0372-7.3896 6.0932c-2.377-1.4686-3.9539-3.8668-4.7318-7.1949l-9.464 7.0654-9.204-4.8616c-1.1246-.60431-2.032-.90734-2.7227-.90734-.4759 0-.89712.18415-1.264.55068-.3676.3676-.55104.81069-.55104 1.3293 0 .25894.10724.67028.3242 1.2312.21555.56197.3242.99448.3242 1.2964 0 .9077-.51893 1.3614-1.5561 1.3614-.95038 0-1.4259-.56197-1.4259-1.6856 0-1.2961.75565-3.0889 2.2687-5.3799l5.7693-8.5563c-4.2358-3.9317-6.5257-7.6913-6.871-11.279l-.12947-1.4259c0-3.6724 1.4908-7.0429 4.4725-10.112 2.9817-3.0244 6.719-4.5378 11.214-4.5378 4.5374 0 8.8805 1.4263 13.028 4.2785 2.1608-2.4634 4.6027-4.0188 7.3251-4.6669"
              fill="#760d28"/>
        <path d="m311.09 53.957c1.21 1.2128 2.6197 1.8038 4.2954 1.8038 1.6598 0 3.108-.57679 4.4087-1.76-.43674-2.897-1.3765-4.9802-2.7972-6.1976-1.3162-1.1285-3.2995-1.7822-5.9069-1.9509zm0 8.6614c1.8584-.63712 3.6237-.9592 5.2677-.9592 1.4414 0 2.8095.236 4.0904.70449-.0141-.81033-.0427-1.6122-.0843-2.3961-.0243-.44943-.0568-.8957-.0967-1.3381-1.5035.65511-3.138.98531-4.8817.98531-1.4524 0-2.89-.28681-4.2954-.85514zm-4.1783 6.0254v-21.029c-.23883 1.0068-.35913 2.1636-.35913 3.4618v10.63c0 2.6702-.49001 4.9854-1.4612 6.9173zm4.1134.16651c1.6436.19756 3.2833.43604 4.8909.71261 1.482.25577 2.9954.5715 4.518.94298l.0762-3.4075c-1.3272-1.1257-2.861-1.6743-4.6715-1.6743-1.7946 0-3.375.56198-4.8136 1.7145zm-8.2677-21.255c-.21661.18274-.37924.34572-.5013.48754-.75459.91863-1.1483 2.2532-1.1483 3.9409v8.4264c0 4.5208-1.8863 8.7041-5.6148 12.471.27516-.18133.55421-.36583.83643-.5521 4.1409-2.9591 6.1743-6.3793 6.1743-10.428v-10.503l-.10725-.58773c-.0148-.0833-.0226-.16757-.0226-.25223 0-.99096.12841-1.9939.38346-3.0025m-17.383 35.654c-.13935 0-.2787-.0205-.41452-.0621-.36794-.11359-.6731-.37218-.84525-.71614l-.32421-.64805c-.33055-.66075-.0945-1.464.54011-1.8412.01-.006.0198-.0116.0293-.0176-.0155-.0141-.30515-.30304-.30515-.30304-.27094-.27023-.41981-.63888-.41275-1.0216.006-.38241.16862-.74577.44873-1.0065 4.9865-4.6376 6.0328-7.4623 6.0328-9.0156 0-2.7051-1.1321-3.2879-1.5046-3.4794-.39688-.19755-.84844-.29739-1.3649-.29739-1.0901 0-2.1001.48013-3.0872 1.4672-.27058.27059-.63077.41275-.9966.41275-.21237 0-.42615-.0476-.62547-.1464-.54187-.26846-.85161-.85337-.77012-1.4524.31433-2.3036 1.3871-4.0693 3.1891-5.2483 1.4242-1.0322 3.1863-1.5558 5.2384-1.5558.17992 0 .36301.004.54822.012l.56797.0198c.44521-3.132 1.4757-5.8928 3.0702-8.2232.85443-1.307 1.9914-2.5693 3.3969-3.773-1.4337.0963-2.5305.14323-3.3362.14323-2.7086 0-4.7886-.37641-6.3592-1.15-1.6312-.80187-2.9231-2.1114-3.8386-3.8922-.88795-1.6764-1.2915-3.4939-1.1913-5.3862l.0649-1.2308c.0342-.65722.51964-1.203 1.1684-1.3144.0797-.01376.15945-.02011.23847-.02011.56233 0 1.0806.3369 1.301.86995.40605.98072 1.0795 1.7501 2.0606 2.352.97543.59901 1.9752.9024 3.0529.92533l.18027-.0363c.091-.018.18345-.0272.27587-.0272.97261 0 2.1876-.043 3.6114-.12735 1.4474-.085 3.1785-.21484 5.1467-.38594 1.9773-.17145 3.7465-.30304 5.2574-.39158 1.5138-.08819 2.7958-.13229 3.8096-.13229h2.5933c.52564 0 1.4806.06562 2.9189.20073 7.8348.80292 12.831 6.283 14.861 16.29.66393 3.3218 1.0005 7.4059 1.0005 12.143 0 .44627-.012.9705-.0335 1.5734-.0229.59196-.0554 1.301-.0981 2.129-.0434.81421-.0751 1.5085-.0967 2.0853-.0215.5655-.0318 1.0555-.0318 1.4721 0 .55527-.32597 1.0587-.83326 1.2855-1.5614.6985-3.1944 1.6097-4.8532 2.7079-1.6722 1.1084-3.4142 2.4366-5.1767 3.9465-.25894.22225-.58526.33902-.91687.33902-.15557 0-.31291-.0254-.46496-.079-5.0108-1.7537-9.761-2.643-14.119-2.643-5.8646 0-11.892 1.7064-17.916 5.0715-.21237.11818-.44909.1785-.68721.1785"
              fill="#760d28"/>
        <path d="m312.76 67.612c.9465-.54998 1.9646-.8195 3.0805-.8195 1.2485 0 2.3026.3048 3.247.94791l-.0215.96308c-.97825-.21343-1.9502-.40357-2.9086-.56903-1.1208-.19261-2.2564-.36724-3.3972-.52246m-.26-6.8739v-.0529c.0374.009.0751.0176.11254.0257-.0374.009-.0748.018-.11254.0272m0-7.4016v-5.9147c1.5501.25223 2.7496.73695 3.5814 1.4503 1.0368.8883 1.7702 2.4179 2.1872 4.5568-.87524.62582-1.8126.92321-2.8818.92321-1.1112 0-2.0472-.32631-2.8868-1.0156m-27.966-21.283c-.15805 0-.31786.01341-.47767.04092-1.2979.2226-2.268 1.3141-2.3372 2.6289l-.0646 1.2319c-.1143 2.1484.34361 4.2129 1.361 6.1334 1.0407 2.025 2.5449 3.5433 4.4552 4.4824 1.7321.85336 3.9617 1.2774 6.81 1.2936-.39123.47554-.74824.95956-1.0703 1.4506-1.4937 2.1904-2.5241 4.7226-3.0769 7.5537-2.3128.012-4.3205.61877-5.9686 1.8045-2.1117 1.3938-3.4198 3.5419-3.785 6.2177-.16298 1.1984.45649 2.3671 1.5399 2.9044.39794.19755.82621.29351 1.251.29351.73096 0 1.452-.28434 1.9928-.82515.94544-.94545 1.6464-1.0548 2.0916-1.0548.28505 0 .52564.0487.73519.14923.48119.26035.72531 1.0065.72531 2.219 0 .83926-.54398 3.2967-5.5834 7.9844-.56021.5207-.88441 1.2471-.89817 2.0119-.008.46038.0963.91088.29916 1.3144-.38559.76941-.41311 1.7025-.002 2.5245l.32385.64841c.34431.68791.95497 1.2054 1.6905 1.4323.27129.0833.55069.12489.82939.12489.47625 0 .95002-.12101 1.3741-.35807 5.8106-3.2463 11.607-4.8923 17.229-4.8923 4.1991 0 8.7926.86255 13.654 2.564.30339.10619.61807.1584.93027.1584.66252 0 1.3152-.23424 1.8334-.67839 1.7187-1.4728 3.4135-2.7654 5.0384-3.8418 1.5921-1.0548 3.1567-1.9283 4.65-2.5964 1.0139-.45367 1.6665-1.4608 1.6665-2.5718 0-.4071.0106-.8837.0307-1.416.0208-.57502.0526-1.2612.0952-2.0634.0434-.83997.0765-1.5558.0995-2.1491.0233-.63889.0342-1.1705.0342-1.6309 0-4.8306-.34537-9.0075-1.0269-12.415-2.7005-13.311-10.239-16.818-16.087-17.418-1.9981-.18768-2.7104-.2092-3.0745-.2092h-2.5933c-1.053 0-2.3255.04375-3.8894.13441-1.5187.0889-3.3009.22155-5.2991.39476-1.9526.17004-3.6703.29845-5.1068.38276-1.3984.08326-2.5852.12524-3.5299.12524-.18485 0-.369.01834-.55069.05433l-.0187.0039c-.76835-.04092-1.4908-.27481-2.2017-.71155-.72954-.44732-1.2047-.9839-1.4965-1.6898-.44133-1.0668-1.4785-1.741-2.6021-1.741m37.27 40.219.12948-5.8219c-1.6852-1.65-3.7169-2.4751-6.0932-2.4751-2.3333 0-4.4076.82514-6.2226 2.4751v3.6177c2.0309.21696 4.0513.49742 6.0607.84279 2.0094.34643 4.0513.8001 6.1256 1.3614m-6.4174-14.066c-1.9445 0-3.8467-.58314-5.7041-1.7498v8.2317c2.4197-1.0795 4.645-1.6203 6.6763-1.6203 2.0309 0 3.8672.51858 5.5097 1.5558v-1.0372c0-1.2527-.0321-2.4846-.0974-3.6946-.0642-1.209-.18415-2.376-.35596-3.5006-1.7724 1.2107-3.7821 1.815-6.0286 1.815m0-1.0368c2.2465 0 4.2136-.88512 5.8988-2.6575-.4325-3.6301-1.5558-6.223-3.3708-7.7784-1.8147-1.5558-4.5596-2.3336-8.2321-2.3336v10.112c1.5558 1.7724 3.4565 2.6575 5.7041 2.6575m-7.0654 12.899v-25.668l-1.5558-.0649c-1.0806 1.6425-1.6203 3.8894-1.6203 6.7409v10.631c0 3.5006-.88617 6.2664-2.6575 8.297l5.8335.0649m-23.789-35.197c.51858 1.2545 1.3935 2.2588 2.6254 3.0141 1.2319.75671 2.5379 1.1345 3.9218 1.1345l.32385-.0646c.99342 0 2.2253-.0427 3.695-.13017 1.4686-.0857 3.1972-.21555 5.1851-.38841 1.9872-.17215 3.7271-.30198 5.2179-.38911 1.4908-.0861 2.7326-.12947 3.7271-.12947h2.5933c.47483 0 1.4034.0645 2.7873.19438 7.1727.73519 11.71 5.7912 13.612 15.168.64805 3.2413.9719 7.1952.9719 11.862 0 .43215-.0109.93945-.0321 1.5229-.0222.58315-.055 1.2862-.0974 2.1068-.0437.82127-.0762 1.523-.0974 2.1064-.0222.58349-.0325 1.0918-.0325 1.5233-1.6429.73519-3.3278 1.675-5.0557 2.8194-1.729 1.1458-3.5006 2.4959-5.3153 4.0513-5.1858-1.8147-10.047-2.722-14.585-2.722-6.1362 0-12.338 1.7498-18.603 5.2504l-.3242-.6484c1.3825-.82162 3.0678-1.8584 5.0564-3.1112 1.9868-1.2531 4.3205-2.7654 7.0005-4.5374 4.5371-3.241 6.8058-7.1081 6.8058-11.603v-10.631l-.12983-.71261c0-2.0313.60502-4.1049 1.815-6.223-2.1174.90769-3.587 1.8373-4.4076 2.7869-.99448 1.2104-1.4908 2.831-1.4908 4.862v8.4264c0 5.0133-2.528 9.5508-7.584 13.612-1.0368.86537-3.3055 2.4857-6.8061 4.862l-.25929-.25964c4.3208-4.0188 6.4819-7.3671 6.4819-10.047 0-2.376-.75636-3.9539-2.2687-4.7318-.60572-.30198-1.2749-.45367-2.0091-.45367-1.4697 0-2.8307.62688-4.0838 1.88.25929-1.9011 1.1229-3.3274 2.5929-4.2781 1.1885-.87136 2.6681-1.3074 4.4379-1.3074.16052 0 .32279.004.48789.0106l1.8803.0653c.30162-3.4572 1.2961-6.417 2.9817-8.8805 1.4683-2.2465 3.8019-4.3205 7.0005-6.2226-.9077 0-2.2691.0649-4.0841.19438-1.7724.12947-3.1112.19473-4.0185.19473-2.4634 0-4.3755-.33479-5.7365-1.0051-1.3614-.66958-2.431-1.7604-3.2085-3.2731-.77823-1.469-1.1243-3.0244-1.0372-4.6672l.0646-1.2319"
              fill="#760d28"/>
        <path d="m364.65 80.876c-.18732 0-.37677-.0374-.55703-.11466-5.1135-2.2034-9.3313-3.3203-12.536-3.3203h-.71332c-3.617 0-8.0984.97367-13.32 2.8949-.15805.0579-.32244.0864-.48578.0864-.3242 0-.64452-.11218-.90134-.32561l-.38947-.3242c-.59196-.49248-.67839-1.3698-.19367-1.9685.71331-.88195 1.4721-1.8768 2.2557-2.9559.77787-1.0724 1.5737-2.2285 2.3654-3.436.25118-.44732.93486-1.6186 2.0331-3.484.90487-1.537 2.1004-3.5729 3.5863-6.1087h-4.7378c-.47836 0-.92392-.24306-1.1836-.64452-.25964-.40217-.29704-.9077-.10054-1.3441l.9077-2.0094c.22825-.50447.73025-.82867 1.2838-.82867h6.6174l.14605-.22895h-5.2077c-.46885 0-.907-.23319-1.1688-.6223-.26176-.38877-.31291-.8823-.13652-1.3169l.84278-2.0747c.2159-.53093.73202-.87806 1.3053-.87806h7.7562c1.948-2.3671 4.3801-4.9774 7.2708-7.8045-2.915.94263-5.7062 1.4175-8.3506 1.4175-2.7538 0-5.5012-.46813-8.1802-1.3928l-1.3737 1.4178c-.27588.28469-.64383.42863-1.0121.42863-.3429 0-.68685-.12489-.95779-.37642l-.90769-.84243c-.56939-.52846-.60325-1.4178-.0762-1.9882.51258-.55493 1.0252-1.1215 1.5378-1.6979.50517-.56867 1.0128-1.1716 1.5078-1.7907l3.0526-3.767c.27341-.33761.67875-.52176 1.0947-.52176.17851 0 .35878.03351.53129.10407 4.4739 1.8235 8.4384 2.7478 11.784 2.7478 2.8656 0 6.713-.7627 11.435-2.2669.14076-.0448.28469-.06632.42721-.06632.42052 0 .82797.18838 1.1.52811l.25929.32385c.38946.48683.41275 1.1716.0575 1.6834-1.4369 2.0715-2.9072 4.4432-4.3688 7.0485-1.1557 2.0613-2.3308 4.3244-3.5048 6.7508h4.9018c.48154 0 .93027.24589 1.1889.65299.25859.40675.29069.91722.0861 1.3536l-.97261 2.0743c-.23177.49424-.72884.81033-1.2753.81033h-6.7324l-.14182.22966h5.4483c.47837 0 .92392.24271 1.1836.64417.25929.40217.29704.90805.10019 1.3441l-.90699 2.0091c-.2279.50447-.73025.82867-1.2838.82867h-7.7914c-1.6083 2.0902-3.6096 4.3356-5.9595 6.6851-1.082 1.0823-2.2465 2.2031-3.4876 3.3577.57997-.20285 1.1328-.38524 1.6559-.5461 3.0942-.98637 6.0516-1.4887 8.7764-1.4887 3.182 0 6.3256.6604 9.3599 1.9653l1.3843-1.5572c.27658-.3115.66322-.47308 1.053-.47308.28998 0 .58208.0893.83185.27235l.97296.71296c.31609.23143.5214.5842.56691.97332.0452.38911-.0737.77963-.32808 1.0777l-2.2691 2.6578c-.0236.0275-.0483.054-.0744.0801-.0487.049-.27799.29422-1.1698 1.3864-.66781.8188-1.6044 1.9823-2.8106 3.4897-.27341.3422-.68192.52847-1.1003.52847"
              fill="#760d28"/>
        <path d="m345.72 33.545c-.8315 0-1.6425.36865-2.1897 1.0435l-3.0466 3.7596c-.49248.6163-.9839 1.2002-1.4725 1.7501-.50623.56868-1.0128 1.1289-1.5191 1.6771-1.0544 1.1405-.98601 2.9196.15205 3.9765l.90769.84243c.54187.50341 1.2298.75283 1.9166.75283.7366 0 1.4718-.28716 2.0239-.85725l.76095-.78564c2.5548.78987 5.1643 1.1892 7.7809 1.1892 1.2679 0 2.5654-.10266 3.8908-.30762-1.2788 1.3518-2.437 2.6451-3.4713 3.8774h-7.0958c-1.1465 0-2.1788.69498-2.6102 1.7572l-.84243 2.0743c-.20461.50306-.25647 1.0463-.16158 1.5653-.58772.28152-1.0724.76376-1.3515 1.3815l-.90769 2.0094c-.3937.87206-.31821 1.8842.20072 2.6878.51894.80363 1.4101 1.2894 2.3668 1.2894h2.2793c-.92428 1.5755-1.7046 2.9041-2.341 3.9853-1.0883 1.8478-1.7522 2.9852-2.0239 3.4667-.7687 1.1716-1.543 2.2952-2.3015 3.3412-.76871 1.059-1.5127 2.0338-2.2109 2.897-.96838 1.1973-.79587 2.9506.38735 3.9363l.38911.32385c.514.42862 1.1546.65299 1.8034.65299.32703 0 .65582-.0572.97226-.17357 5.0652-1.8634 9.3828-2.8085 12.834-2.8085h.71297c3.0124 0 7.0425 1.0784 11.979 3.2057.36054.15522.73906.23001 1.1137.23001.83715 0 1.6538-.37324 2.2013-1.0576 1.2019-1.5028 2.1357-2.6624 2.8021-3.4791.83679-1.0248 1.0499-1.2548 1.0841-1.2905.0515-.0519.0924-.0967.1397-.1524l2.2691-2.6575c.50871-.59584.74648-1.3765.65582-2.1548-.0907-.77823-.5013-1.4838-1.1335-1.947l-.97225-.71261c-.50024-.36618-1.0841-.54504-1.664-.54504-.78 0-1.5533.32279-2.1068.9458l-.72249.81245c-2.9164-1.1247-5.9249-1.6933-8.969-1.6933-1.736 0-3.5567.19192-5.4427.57256 1.9748-2.0048 3.6992-3.9366 5.1449-5.7633h7.1039c1.1074 0 2.1117-.6484 2.5675-1.6577l.86466-1.9149c.18839-.37747.29422-.80327.29422-1.2538 0-.19367-.0198-.38347-.0568-.56656.52176-.28116.9525-.72566 1.2146-1.2841l.92921-1.9826c.19897-.38594.3115-.82374.3115-1.2876 0-1.5561-1.2598-2.8173-2.8155-2.8173h-2.64c.82762-1.6439 1.6528-3.1997 2.4677-4.6524 1.44-2.5672 2.8861-4.9004 4.2979-6.9346.7105-1.0241.66358-2.3936-.11571-3.3669l-.25929-.3242c-.54398-.67945-1.3589-1.0566-2.1996-1.0566-.28504 0-.57326.04339-.85478.13335-4.5833 1.4601-8.2868 2.2003-11.007 2.2003-3.1626 0-6.9487-.88935-11.253-2.6437-.34502-.14076-.70591-.20849-1.0626-.20849m20.223 24.791h.004m2.395-5.1209h.004m-22.626-16.853c4.6669 1.9022 8.7718 2.8522 12.316 2.8522 3.0244 0 6.9783-.77752 11.862-2.3333l.25965.32385c-1.4697 2.1177-2.9496 4.505-4.4404 7.1624-1.4908 2.6578-2.993 5.607-4.5046 8.848h7.13l-.97261 2.0743h-7.5188l-1.88 3.0466h7.9728l-.90734 2.0091h-8.4914c-1.6429 2.2042-3.7271 4.5699-6.2555 7.0979-2.528 2.5284-5.4769 5.2405-8.8477 8.1354l.12948.25894c1.6422-.73413 3.1538-1.3712 4.5378-1.912 1.3822-.53975 2.6349-.98284 3.7592-1.3286 2.9817-.95039 5.769-1.4263 8.3619-1.4263 3.327 0 6.568.75635 9.7229 2.2684l2.074-2.3329.9726.71261-2.2687 2.6575c-.17322.17356-.59443.67062-1.264 1.4908-.67063.82162-1.6101 1.9886-2.8198 3.5006-5.3153-2.2902-9.6806-3.4354-13.094-3.4354h-.71297c-3.8029 0-8.4053.99448-13.806 2.9817l-.38911-.3242c.73413-.9077 1.5007-1.912 2.3008-3.0145.7994-1.1017 1.6097-2.2786 2.431-3.5324.2159-.38876.89641-1.5558 2.0415-3.5006 1.1448-1.9442 2.7548-4.6881 4.8295-8.2317h-7.1953l.9077-2.0098h7.3893l1.9445-3.0462h-7.7784l.84278-2.0743h8.4264c3.1976-3.9751 7.7788-8.6212 13.742-13.936-5.618 3.1552-10.782 4.7322-15.492 4.7322-2.8956 0-5.7478-.5401-8.5559-1.6207l-2.0094 2.0743-.9077-.84244c.51859-.56162 1.0372-1.1345 1.5558-1.718.51859-.5835 1.0375-1.1991 1.5554-1.8475l3.0469-3.7596"
              fill="#760d28"/>
        <path d="m209.2 49.599 8.7877-7.009-8.7877-3.4001zm4.2785 7.5025c2.3548 1.1165 4.3621 1.682 5.9718 1.682 1.626 0 3.6072-.6096 5.8942-1.8129-.37359-1.8471-1.198-3.2646-2.5114-4.3233-1.4199-1.1441-3.2346-1.7244-5.3922-1.7244-1.3801 0-2.7108.19579-3.9624.58279zm5.9073 5.7662c2.0983 0 4.0167.37254 5.715 1.1084.50976-1.3899.77011-2.7739.7754-4.1229l-.0152-.12805c-2.5559 1.0418-4.7748 1.5692-6.6054 1.5692-1.4302 0-3.3055-.39476-5.7122-1.204v3.689c2.0553-.60502 4.0167-.91158 5.8424-.91158m-18.194-17.235c-1.8704 2.4331-2.8166 5.5806-2.8166 9.3832 0 3.6251.90558 6.7726 2.6938 9.3684.139-.23848.24025-.57714.24025-1.0714zm1.445 21.376c2.4225 2.5859 5.1096 4.2513 8.007 4.9632v-19.346c-.46144.18521-.96556.42828-1.5085.72778v3.4131c0 3.0914-.64947 5.1717-1.9865 6.3602-.61453.52634-1.3264 1.1402-2.1449 1.8521-.68439.59478-1.4736 1.2718-2.3671 2.0299m10.842 5.1791c4.3713-.18169 7.8126-2.0807 10.483-5.7834-1.5744-.63818-3.1101-.96097-4.5755-.96097-1.4647 0-3.4505.39335-5.9073 1.1702zm-5.2416 4.1455c-6.3461 0-11.161-2.1911-14.311-6.5123-1.845-2.5636-2.8706-5.238-3.0512-7.9523l-.12947-2.0101c-.22401-3.5535.9906-7.4256 3.6103-11.51 2.2878-3.563 5.1005-6.5091 8.3608-8.7559l10.692-7.4517c.12065-.08396.26141-.12665.40287-.12665.11889 0 .23778.02999.34537.09067 3.9074 2.2006 7.4683 3.3165 10.584 3.3165.31927 0 .63394-.01164.94509-.03457 0 0 3.8608-.26141 3.8767-.26141.30092 0 .5708.19226.66746.48084l.0649.19438c.0945.28293.001.59443-.23354.77823l-8.4984 6.6481c7.1963 2.5809 10.843 6.9571 10.843 13.021v.32385c0 5.7866-2.7146 10.689-8.0691 14.571-4.7692 3.4442-10.186 5.1901-16.1 5.1901"
              fill="#ffb726"/>
        <path d="m214.19 67.132c2.1586-.65405 3.9056-.98496 5.2031-.98496 1.1038 0 2.2546.19721 3.436.58773-2.292 2.8307-5.1389 4.379-8.6392 4.6997zm5.0729-5.1333c1.7014 0 3.6354-.40428 5.8709-1.2312-.0702.75106-.22296 1.5124-.4565 2.2786-1.6041-.58632-3.375-.883-5.2842-.883-1.6224 0-3.3443.23212-5.1386.69179v-1.7974c2.0458.63218 3.6957.94121 5.0084.94121m-9.416-8.2247c.0335-.0173.0667-.0346.0995-.0515v17.318c-2.2334-.7172-4.3346-2.0504-6.2738-3.9825.65264-.55633 1.2548-1.0742 1.7999-1.5476.81809-.71085 1.5286-1.3243 2.1318-1.8408 1.5155-1.3469 2.2426-3.5998 2.2426-6.9039zm4.343-1.7374c1.0379-.27199 2.1301-.40922 3.2582-.40922 2.0207 0 3.64.51294 4.9502 1.5681 1.0555.8509 1.7618 1.9688 2.1424 3.399-1.9777.98566-3.6844 1.4848-5.0832 1.4848-1.415 0-3.1838-.47978-5.2677-1.4273zm-13.585 10.136c-1.0086-2.0899-1.518-4.4863-1.518-7.1575 0-2.7069.46955-5.0119 1.4242-6.96zm9.3066-14.037v-7.9181l6.6851 2.5866zm3.9067-16.827c-.28258 0-.56409.08502-.80539.25294l-10.695 7.4542c-3.3313 2.2955-6.2092 5.3086-8.5474 8.951-2.703 4.2143-3.9546 8.2292-3.7208 11.934l.12983 2.0112c.18944 2.8501 1.2591 5.6473 3.1796 8.316 3.2953 4.5201 8.3016 6.8086 14.885 6.8086 6.0653 0 11.62-1.791 16.511-5.3224 5.5499-4.0238 8.3626-9.1182 8.3626-15.143v-.3242c0-6.0526-3.405-10.495-10.131-13.234l7.5163-5.8797c.46955-.3676.65723-.9906.46814-1.5561l-.0649-.19438c-.19333-.5775-.73343-.96238-1.3356-.96238-.0317 0-.0635.0011-.096.0035l-3.8245.25929c-.30057.02223-.60078.03316-.90135.03316-2.9933 0-6.4382-1.0851-10.239-3.2258-.21519-.121-.45367-.18133-.69144-.18133m-1.0368 41.597c5.1855 0 9.2692-2.2687 12.251-6.8061-1.9449-.90769-3.8245-1.3614-5.6392-1.3614-1.6429 0-3.8467.45368-6.6118 1.3614v6.8061m6.4816-12.316c-1.5127 0-3.6523-.49636-6.417-1.4908v5.6392c2.3336-.77787 4.5152-1.1666 6.5472-1.1666 2.2895 0 4.3208.45367 6.0928 1.3614.73448-1.7279 1.1021-3.4357 1.1021-5.1209l-.12982-1.1021c-2.8522 1.2541-5.2504 1.88-7.1953 1.88m-7.9079 12.251v-21.196c-.82126.2166-1.7939.64805-2.9168 1.2961v3.8245c0 2.8522-.5835 4.7967-1.7505 5.8339-.60536.51859-1.3183 1.1342-2.1389 1.8472-.82126.71331-1.7935 1.5455-2.9168 2.4956 2.8945 3.2847 6.1359 5.2507 9.7229 5.8988m8.1026-13.353c1.8574 0 4.0838-.71261 6.6763-2.1389-.34642-2.2465-1.2961-3.9966-2.8522-5.2504-1.5554-1.2531-3.4999-1.88-5.8335-1.88-1.6429 0-3.1983.25929-4.6669.77787v6.5468c2.6352 1.2961 4.8613 1.9445 6.6763 1.9445m-18.474 5.9634c.69074-.43145 1.0368-1.1444 1.0368-2.1392l-.12947-19.51c-2.8095 2.7224-4.2132 6.4608-4.2132 11.213 0 4.1063 1.1017 7.5844 3.3059 10.436m7.5188-14.39 10.89-8.6854-10.89-4.2136v12.899m5.3153-18.344c4.033 2.2715 7.6772 3.4071 10.93 3.4071.33655 0 .66852-.01199.9966-.03634l3.8245-.25964.0653.19473-9.5289 7.4542c7.735 2.4208 11.603 6.6767 11.603 12.769v.32421c0 5.5742-2.5926 10.241-7.7784 14.001-4.6672 3.3704-9.8961 5.056-15.686 5.056-6.1369 0-10.717-2.074-13.742-6.2226-1.7727-2.4634-2.745-4.9911-2.9171-7.5844l-.12982-2.0091c-.21555-3.4131.95003-7.1081 3.5006-11.084 2.2465-3.4999 4.9685-6.3521 8.1672-8.5563l10.695-7.4542"
              fill="#760d28"/>
        <path d="m263.28 55.932v-13.337l-.84878-1.2308-9.8873 14.568zm-9.5374-17.519c-3.1348 0-5.7908.94368-7.8955 2.8053-2.2849 1.9579-3.392 4.3907-3.392 7.445 0 3.3221 1.632 6.3952 4.8525 9.1429l7.9089-11.595c-.48542-.57644-1.1155-.85266-1.9505-.86184l-.99201.12418c-1.3892.15029-2.4878.95003-3.3694 2.4458-.12876.21837-.3616.34643-.60678.34643-.0614 0-.12382-.008-.18521-.0247-.30656-.0836-.51893-.3623-.51893-.6798 0-2.243.80645-4.0404 2.3975-5.3418 1.4242-1.1391 3.2949-1.7142 5.5665-1.7142 1.1998 0 2.3326.10266 3.3736.30516l.80892-1.2139c-2.0821-.78529-4.0961-1.1832-5.9976-1.1832m4.953 31.531 4.8436-3.9211v-4.1451h-15.194l-1.7173 2.5061zm10.215 6.5183c-.12806 0-.25612-.0349-.37007-.10548-2.2765-1.4062-3.8795-3.6255-4.7745-6.6065l-8.6293 6.4428c-.12418.0928-.27234.1397-.42122.1397-.11253 0-.22542-.0268-.32879-.0815l-9.2047-4.8616c-1.2711-.68298-2.0027-.8255-2.3936-.8255-.28752 0-.53129.10901-.76553.34396-.23566.2353-.34502.49953-.34502.83114 0 .0614.0198.31327.27622.9779.25048.65193.37219 1.1585.37219 1.5498 0 1.2936-.84526 2.0659-2.2602 2.0659-.641 0-2.1304-.23283-2.1304-2.3897 0-1.4513.78035-3.338 2.3851-5.7683l5.4384-8.0659c-4.0672-3.8897-6.3055-7.6937-6.6537-11.313l-.13018-1.4298c-.002-3.9084 1.5695-7.4757 4.6694-10.667 3.109-3.1538 7.0506-4.7509 11.719-4.7509 4.4746 0 8.817 1.3649 12.915 4.058 2.1498-2.3008 4.5946-3.7895 7.275-4.4274.054-.01304.10866-.01905.16299-.01905.18415 0 .36371.07232.49741.20567l.12947.12912c.13476.13406.20955.31715.20708.5073-.002.18979-.0815.37112-.21907.502-.84314.80116-1.5692 1.5487-2.159 2.2218-.57468.65617-1.0308 1.2569-1.3564 1.7854-.91475 1.5508-1.3617 3.2131-1.3215 4.9294l.51859 21.974c.0699 2.4892.51964 4.3071 1.3391 5.4148l1.5529-1.1649c.12629-.0945.27481-.14076.42227-.14076.18909 0 .37642.0755.51435.22225l.97226 1.0375c.133.14181.20143.33267.18909.52669-.0124.19403-.10478.37465-.25471.49813l-7.39 6.0932c-.12911.10654-.28822.16087-.44802.16087"
              fill="#ffb726"/>
        <path d="m248.72 62.582h14.119v3.1052l-4.2422 3.4339-10.912-5.0282zm5.1569-7.3544 8.5626-12.616.14006.20285v12.413zm-6.6975 1.5226c-2.6998-2.4853-4.016-5.1417-4.016-8.0871 0-2.8356 1.0262-5.0938 3.138-6.9032 2.0161-1.7829 4.4461-2.6427 7.4454-2.6427 1.5607 0 3.206.28257 4.9092.84172l-.0508.0762c-.95532-.15592-1.9748-.23495-3.0434-.23495-2.4356 0-4.4545.62724-6.0008 1.8641-1.7745 1.4513-2.6677 3.4322-2.6677 5.8967 0 .63536.42475 1.1917 1.0379 1.3589.12311.0339.24765.0501.37076.0501.48966 0 .95533-.25647 1.2132-.69356.76094-1.2908 1.6859-1.9784 2.8275-2.1022l.96485-.12029c.3944.01.71473.0942.98566.26634zm28.541-25.895c-.10866 0-.21837.0127-.32632.03845-2.6487.63042-5.0715 2.0436-7.2175 4.2072-4.0707-2.5605-8.3742-3.8569-12.81-3.8569-4.8634 0-8.974 1.6679-12.217 4.9572-3.2392 3.3338-4.8779 7.0661-4.8779 11.101 0 .0423.002.085.006.12736l.12947 1.4259c.35313 3.6685 2.5188 7.48 6.4424 11.349l-5.1054 7.5717c-1.6909 2.5601-2.5093 4.5738-2.5093 6.1673 0 2.2811 1.464 3.0942 2.8346 3.0942 1.8006 0 2.964-1.0873 2.964-2.77 0-.48613-.13264-1.0583-.41734-1.8009-.21166-.54787-.23071-.74119-.23142-.7493.00079-.12312.0356-.20709.13935-.31045.13829-.13829.21308-.13829.26776-.13829.254 0 .85866.096 2.0556.73942l9.2135 4.8662c.20673.10936.43251.16334.65758.16334.2981 0 .59443-.0945.84278-.28011l7.849-5.8593c.98742 2.6793 2.5841 4.712 4.7636 6.0586.22789.14076.48471.21026.74012.21026.31962 0 .63783-.10866.89641-.32174l7.3896-6.0932c.30021-.2473.48436-.60819.50941-.9966.0251-.38841-.11183-.76941-.37782-1.0534l-.97226-1.0372c-.27552-.29422-.65052-.44521-1.028-.44521-.29563 0-.59267.0924-.84491.28152l-.92992.69744c-.49671-1.0185-.78246-2.5125-.83573-4.4066l-.51858-21.968c-.0374-1.6051.36512-3.0988 1.2308-4.566.29069-.47167.72355-1.0403 1.2732-1.6679.57503-.65687 1.2862-1.3889 2.1138-2.1752.27552-.26176.43321-.62336.43815-1.0033.005-.37994-.14394-.74542-.4124-1.0139l-.12982-.12982c-.26705-.26706-.62654-.4124-.99554-.4124m-16.918 39.912 5.4451-4.4076v-5.1858h-16.27l-2.3985 3.5003 13.223 6.0932m-7.5837-14.131h12.769v-14.26l-1.2961-1.88h-.51858l-10.954 16.14m-3.7596 2.2034 8.6208-12.64c-.64805-1.0368-1.5991-1.5558-2.8519-1.5558l-1.0375.12982c-1.5991.17321-2.8956 1.1021-3.889 2.7869 0-2.0306.71296-3.6297 2.1392-4.7967 1.2961-1.0368 3.0028-1.555 5.1209-1.555 1.3388 0 2.57.12947 3.6946.38841l1.5554-2.3333c-2.4631-1.0372-4.819-1.5558-7.0651-1.5558-3.3285 0-6.1154.99448-8.3622 2.9817-2.42 2.074-3.6297 4.7318-3.6297 7.9728 0 3.7596 1.9011 7.1526 5.7044 10.177m28.261-26.576.12947.12947c-.86466.82162-1.5988 1.5776-2.2038 2.2687-.60571.6918-1.0806 1.3187-1.4263 1.88-.99449 1.6852-1.4693 3.4576-1.4259 5.315l.51858 21.974c.0864 3.0688.73448 5.1855 1.9445 6.3521l2.0747-1.5558.97225 1.0375-7.3896 6.0928c-2.377-1.4686-3.9539-3.8668-4.7318-7.1949l-9.464 7.0654-9.204-4.8616c-1.1246-.6043-2.032-.90734-2.7227-.90734-.4759 0-.89712.18415-1.264.55069-.3676.36759-.55104.81068-.55104 1.3293 0 .25894.10724.67028.3242 1.2312.21555.56233.3242.99483.3242 1.2965 0 .90769-.51894 1.3614-1.5558 1.3614-.95074 0-1.4259-.56198-1.4259-1.6856 0-1.2961.7553-3.0889 2.2684-5.3799l5.7693-8.5563c-4.2358-3.9317-6.5257-7.6913-6.871-11.279l-.12947-1.4259c0-3.6728 1.4908-7.0428 4.4725-10.112 2.9817-3.0244 6.719-4.5374 11.214-4.5374 4.5374 0 8.8805 1.4263 13.028 4.2785 2.1608-2.4634 4.6027-4.0192 7.3251-4.6672"
              fill="#760d28"/>
        <path d="m310.39 50.402c1.3906 1.4965 3.0286 2.2243 4.9996 2.2243 1.9643 0 3.6544-.72143 5.1576-2.2031-.43639-3.2593-1.4746-5.6113-3.0879-6.9938-1.56-1.3374-3.9356-2.0606-7.0693-2.1534zm0 9.3878c2.1304-.83996 4.1353-1.2651 5.9718-1.2651 1.7237 0 3.3348.35807 4.8059 1.0657-.004-1.1839-.0353-2.3604-.0963-3.4999-.043-.80257-.11183-1.5974-.20497-2.3742-1.6492.90029-3.4862 1.3554-5.4769 1.3554-1.694 0-3.3708-.41805-4.9996-1.245zm-2.7697 5.7281v-24.281l-.46919-.0198c-.86219 1.4912-1.2986 3.5137-1.2986 6.0205v10.631c0 3.0445-.65899 5.5961-1.9632 7.608zm2.7048.0811c1.8369.20814 3.6763.47026 5.4758.77964 1.742.30022 3.5281.6851 5.322 1.1462l.10266-4.6168c-1.5148-1.39-3.2787-2.0669-5.3823-2.0669-2.0733 0-3.882.68369-5.5182 2.0881zm-24.947 13.068c-.0695 0-.1397-.0106-.20743-.0314-.1838-.0564-.33655-.18591-.42263-.35807l-.3242-.64805c-.16546-.3302-.0473-.73201.27022-.92075 1.3772-.81844 3.073-1.8616 5.0405-3.1016 1.978-1.2471 4.3289-2.7707 6.9871-4.529 4.3603-3.115 6.49-6.7229 6.49-11.015v-10.566l-.11818-.65087c-.007-.0413-.0113-.0836-.0113-.12559 0-1.543.33232-3.1207.98955-4.7089-1.0626.5775-1.8478 1.1575-2.3449 1.7332-.87171 1.0615-1.3194 2.5467-1.3194 4.4012v8.4268c0 5.2137-2.6402 9.9783-7.8468 14.161-1.0545.87912-3.2988 2.4828-6.852 4.8952-.11994.0818-.25823.1217-.39511.1217-.18203 0-.36195-.0702-.49812-.20637l-.25965-.25965c-.13511-.13511-.2099-.31961-.20637-.51082.003-.19085.0847-.37253.22437-.50306 4.1522-3.8619 6.2579-7.0686 6.2579-9.531 0-2.1096-.61736-3.4523-1.887-4.106-.50517-.25117-1.0594-.37535-1.687-.37535-1.2862 0-2.4592.54751-3.5856 1.6736-.13512.13511-.31503.20637-.49812.20637-.10584 0-.21308-.024-.31257-.073-.27093-.13477-.4258-.42651-.38488-.72638.28681-2.105 1.2651-3.7116 2.908-4.7745 1.2728-.93486 2.9065-1.4203 4.8214-1.4203.1704 0 .34255.004.51788.0113l1.2146.042c.37782-3.2833 1.397-6.1574 3.0349-8.551 1.1585-1.7724 2.8568-3.459 5.0613-5.0274-.46355.0272-.96803.0603-1.5127.0991-1.7819.13053-3.1514.1965-4.0693.1965-2.5975 0-4.5755-.35243-6.0477-1.0777-1.4933-.73413-2.679-1.9396-3.5232-3.5828-.83185-1.5695-1.2083-3.2632-1.1148-5.026l.0649-1.2315c.0173-.32879.26-.60184.5842-.65758.0399-.0067.0797-.0099.11924-.0099.28117 0 .54046.16863.65088.43498.46426 1.1236 1.2301 2.0006 2.3424 2.6829 1.1088.68122 2.25 1.0181 3.4854 1.0301l.254-.05044c.0455-.0092.0917-.01376.13829-.01376.98601 0 2.2151-.04339 3.653-.12841 1.4538-.08537 3.1916-.2159 5.1657-.38735 1.971-.17074 3.7331-.30233 5.238-.39088 1.506-.08643 2.7735-.13053 3.7684-.13053h2.5929c.50377 0 1.4369.06456 2.8533.19755 7.4866.76694 12.275 6.059 14.237 15.729.6544 3.2748.98636 7.312.98636 12.002 0 .43956-.0116.95497-.0328 1.5487-.0229.58738-.0554 1.2936-.0981 2.1174-.0434.81809-.0755 1.5159-.0967 2.0962-.0219.57432-.0325 1.0735-.0325 1.4975 0 .27764-.16298.52917-.41627.64276-1.5988.71579-3.2657 1.6457-4.9544 2.764-1.6962 1.1243-3.4614 2.4694-5.2458 3.9987-.12982.11113-.29316.16969-.45861.16969-.078 0-.15699-.013-.23283-.0395-5.0856-1.7801-9.9141-2.6829-14.352-2.6829-5.9866 0-12.13 1.7364-18.26 5.1608-.10583.0593-.22436.0896-.34325.0896"
              fill="#ffb726"/>
        <path d="m311.03 63.26c1.4386-1.1529 3.0191-1.7145 4.814-1.7145 1.8101 0 3.344.54857 4.6708 1.6739l-.0758 3.4078c-1.5226-.37147-3.0356-.68756-4.5173-.94297-1.6087-.27658-3.2487-.51541-4.8916-.71226zm4.3603-7.4838c1.7441 0 3.3786-.33055 4.8817-.98531.0402.44168.0723.88795.0963 1.337.0423.78387.0706 1.5861.0847 2.3968-1.2806-.46813-2.649-.70414-4.0905-.70414-1.6439 0-3.4092.32173-5.2673.95885v-3.8583c1.4051.56832 2.8427.85513 4.2951.85513m-10.294 9.0089c.97084-1.9318 1.4612-4.2471 1.4612-6.9173v-10.631c0-1.2982.12029-2.4543.35912-3.4611v21.029zm-9.592 4.2531c3.7208-3.7585 5.6085-7.9438 5.6085-12.466v-8.4268c0-1.6873.3937-3.0222 1.1705-3.9673.11501-.13265.27093-.28858.48013-.46461-.25576 1.0096-.38417 2.0136-.38417 3.006 0 .0847.007.16898.0226.25188l.1069.58808v10.504c0 4.0421-2.0267 7.4577-6.1958 10.442-.2727.18027-.54222.35843-.80857.53376m15.591-18.92v-8.1051c2.607.16828 4.5903.82268 5.9066 1.9509 1.421 1.2178 2.3604 3.301 2.7975 6.198-1.301 1.1832-2.7492 1.76-4.409 1.76-1.6753 0-3.085-.5909-4.2951-1.8038m-26.559-20.495c-.079 0-.15875.0067-.23884.02011-.64875.11148-1.1342.65758-1.1688 1.3148l-.0642 1.2319c-.10054 1.8909.30268 3.708 1.1991 5.4.90734 1.7656 2.1992 3.0755 3.8315 3.8781 1.5699.77294 3.6498 1.1494 6.3581 1.1494.80681 0 1.9036-.0469 3.3376-.14322-1.4086 1.2065-2.5509 2.4761-3.4145 3.7976-1.5801 2.3086-2.6088 5.0673-3.054 8.1982l-.57997-.0201c-.17356-.007-.3563-.0113-.53692-.0113-2.0514 0-3.8135.52317-5.2377 1.5558-1.802 1.179-2.8748 2.9443-3.1888 5.2479-.0815.59901.22824 1.1836.76976 1.452.19896.0988.4131.14676.62547.14676.36548 0 .72602-.14218.9966-.4124.98742-.98743 1.9971-1.4676 3.0875-1.4676.51611 0 .96802.10019 1.3811.30621.35596.1831 1.4884.76553 1.4884 3.471 0 1.5529-1.0467 4.3776-6.0332 9.0156-.27976.26035-.44168.62371-.44873 1.0061-.007.38241.14181.75106.41239 1.0213l.25965.25964c.0148.0152.0303.0296.0459.0441-.01.006-.0194.0116-.0293.0173-.63465.37747-.87066 1.1804-.54011 1.8411l.32385.64806c.17216.34431.47766.60289.84526.71614.13582.0416.27552.0624.41487.0624.23812 0 .47483-.0603.68686-.17886 6.0233-3.3652 12.051-5.0715 17.916-5.0715 4.3579 0 9.1084.88935 14.12 2.6434.15169.0529.30903.079.46496.079.33125 0 .65792-.11712.91686-.33902 1.7625-1.5102 3.5042-2.8381 5.1767-3.9465 1.6566-1.0971 3.2897-2.0084 4.8532-2.7079.50694-.22683.83326-.7306.83326-1.2859 0-.42474.0106-.91934.0314-1.4697.0212-.57926.0529-1.2735.0963-2.0849.043-.83044.0758-1.5399.0984-2.128.0222-.61878.0332-1.1338.0332-1.5773 0-4.7378-.33619-8.8219-.99942-12.138-2.0309-10.011-7.027-15.491-14.85-16.293-1.4499-.13617-2.4045-.20179-2.9309-.20179h-2.5933c-1.0114 0-2.2927.0441-3.8082.13194-1.505.08784-3.2738.21978-5.2585.39158-1.9653.1711-3.6964.30092-5.146.38594-1.4252.08467-2.6402.12735-3.6124.12735-.0924 0-.1845.0092-.27516.02752l-.18098.03598c-1.0777-.02294-2.0775-.32597-3.0522-.92463-.98143-.60184-1.6552-1.3712-2.0609-2.3523-.22084-.5334-.73942-.8703-1.301-.8703m37.271 38.81.12947-5.8219c-1.6852-1.6499-3.7169-2.4754-6.0932-2.4754-2.3333 0-4.4076.8255-6.2226 2.4754v3.6177c2.0309.21696 4.0513.49707 6.0611.84279 2.0091.34643 4.0509.8001 6.1253 1.3614m-6.4174-14.066c-1.9445 0-3.8467-.58314-5.7041-1.7501v8.2321c2.4197-1.0795 4.645-1.6203 6.6763-1.6203 2.0309 0 3.8672.51858 5.5097 1.5558v-1.0372c0-1.2531-.0321-2.4846-.0974-3.695-.0642-1.209-.1838-2.3756-.35595-3.5003-1.7724 1.2107-3.7818 1.815-6.0286 1.815m0-1.0368c2.2468 0 4.2136-.88547 5.8988-2.6578-.4325-3.6297-1.5558-6.2226-3.3708-7.7784-1.8147-1.5558-4.5596-2.3333-8.2321-2.3333v10.112c1.5558 1.7724 3.4565 2.6578 5.7041 2.6578m-7.0651 12.899v-25.668l-1.5561-.0649c-1.0806 1.6425-1.6203 3.8894-1.6203 6.7409v10.631c0 3.5003-.88618 6.2664-2.6575 8.297l5.8339.0649m-23.789-35.197c.51858 1.2541 1.3935 2.2585 2.6254 3.0141 1.2319.75636 2.5379 1.1345 3.9218 1.1345l.32385-.06456c.99342 0 2.2253-.04269 3.695-.13018 1.4686-.08608 3.1972-.21555 5.1851-.38876 1.9872-.17216 3.7271-.30162 5.2179-.38912 1.4908-.08572 2.7326-.12947 3.7271-.12947h2.5933c.47484 0 1.4034.06456 2.7873.19473 7.1727.73484 11.71 5.7912 13.612 15.168.64805 3.2413.97225 7.1953.97225 11.862 0 .43216-.0113.93945-.0325 1.523-.0222.58349-.055 1.2866-.0974 2.1071-.0437.82091-.0759 1.5229-.0974 2.1061-.0219.58385-.0325 1.0918-.0325 1.5236-1.6429.73519-3.3278 1.675-5.0557 2.8194-1.729 1.1455-3.5006 2.4959-5.3153 4.0513-5.1858-1.815-10.047-2.7224-14.585-2.7224-6.1359 0-12.338 1.7501-18.603 5.2504l-.32421-.64806c1.3825-.82162 3.0678-1.8584 5.0564-3.1111 1.9872-1.2531 4.3205-2.7654 7.0005-4.5378 4.5371-3.2406 6.8058-7.1078 6.8058-11.602v-10.631l-.12982-.71296c0-2.0309.60501-4.1049 1.815-6.2226-2.1174.90735-3.587 1.8373-4.4076 2.787-.99448 1.2104-1.4908 2.831-1.4908 4.8616v8.4268c0 5.0133-2.528 9.5504-7.5837 13.612-1.0372.86501-3.3059 2.4853-6.8061 4.8616l-.25965-.25965c4.3208-4.0188 6.4819-7.3667 6.4819-10.047 0-2.376-.75635-3.9539-2.2684-4.7322-.60607-.30162-1.2753-.45331-2.0094-.45331-1.4697 0-2.8307.62688-4.0838 1.8796.25929-1.9008 1.1229-3.327 2.5929-4.2778 1.1885-.87136 2.6681-1.3078 4.438-1.3078.16051 0 .32279.004.48824.0109l1.88.0649c.30163-3.4569 1.2961-6.417 2.9817-8.8801 1.4683-2.2465 3.8019-4.3208 7.0005-6.223-.90769 0-2.2691.0649-4.0841.19438-1.7724.12982-3.1111.19473-4.0185.19473-2.4634 0-4.3755-.33443-5.7365-1.0047-1.3614-.66957-2.431-1.7607-3.2085-3.2734-.77823-1.469-1.1243-3.0244-1.0372-4.6669l.0646-1.2319"
              fill="#760d28"/>
        <path d="m364.65 76.333c-.0935 0-.18803-.0187-.27834-.0575-5.2021-2.2416-9.5134-3.3778-12.815-3.3778h-.71332c-3.7003 0-8.2635.98848-13.563 2.9379-.079.0293-.16123.0434-.24307.0434-.16192 0-.32208-.0561-.4505-.16298l-.38946-.32385c-.29598-.24624-.33937-.6851-.097-.98425.72073-.89041 1.4877-1.8944 2.2786-2.9848.79339-1.0943 1.6048-2.2733 2.4116-3.5048.19403-.35313.88407-1.536 2.0239-3.472 1.028-1.7459 2.4306-4.1356 4.2079-7.1706h-5.9665c-.23918 0-.46178-.121-.59196-.32209-.12982-.20073-.14852-.45402-.0497-.67204l.90734-2.0094c.11395-.25224.36513-.41416.64171-.41416h7.0037l1.0449-1.638h-6.4929c-.2346 0-.45367-.11642-.58456-.3108-.13088-.19473-.15663-.44132-.0681-.65863l.84314-2.074c.10759-.26564.36583-.43957.65228-.43957h8.0903c2.4888-3.0582 5.8117-6.538 9.9109-10.38-4.0128 1.717-7.8073 2.5844-11.325 2.5844-2.8194 0-5.6335-.50588-8.3711-1.5039l-1.6888 1.7434c-.13794.14252-.32173.21449-.50588.21449-.17181 0-.34361-.0624-.47943-.18803l-.90734-.84314c-.28434-.26423-.30127-.70909-.0377-.99413.51541-.55774 1.0308-1.1282 1.5469-1.7078.51329-.57785 1.0284-1.1899 1.5311-1.8189l3.0498-3.7634c.13653-.16863.33937-.26105.54751-.26105.0892 0 .17921.01693.26564.05221 4.559 1.8577 8.6134 2.8004 12.05 2.8004 2.9376 0 6.8566-.77435 11.648-2.3005.0709-.02257.14252-.03316.21414-.03316.2099 0 .41416.09419.55033.26423l.25929.32455c.19403.24271.20602.58526.0286.84138-1.4503 2.0895-2.9323 4.4803-4.4048 7.1053-1.3226 2.358-2.6691 4.9773-4.0093 7.7988h6.0205c.24095 0 .46531.12312.59408.32668.12947.2032.14605.45861.0434.67698l-.97296 2.0743c-.11571.2473-.36442.40499-.63747.40499h-7.1254l-1.0111 1.638h6.7105c.23918 0 .46179.12171.59196.32243.12982.20074.14852.45403.0501.67205l-.907 2.0091c-.1143.25188-.36547.41416-.64205.41416h-8.14c-1.6231 2.1428-3.6766 4.4591-6.109 6.8919-1.8436 1.8436-3.9289 3.8015-6.2244 5.8445.44168-.18097.87171-.35348 1.2894-.51646 1.3949-.54469 2.6765-.99731 3.809-1.3455 3.0314-.96696 5.9168-1.458 8.569-1.458 3.2473 0 6.4558.71049 9.5448 2.1131l1.7254-1.941c.13864-.15558.33196-.23637.5267-.23637.14534 0 .29104.0448.41592.13618l.97296.71261c.15805.11571.26071.2921.28328.48648.0229.19473-.0367.39017-.16369.53904l-2.2691 2.6575c-.14288.14605-.43992.48154-1.2545 1.4792-.66887.81985-1.6073 1.9851-2.8148 3.4946-.13687.17145-.34078.26459-.55033.26459"
              fill="#ffb726"/>
        <path d="m345.72 31.115c-.41592 0-.82161.18415-1.095.52176l-3.0466 3.7596c-.50165.62794-1.0089 1.2305-1.5141 1.7988-.51223.57609-1.0248 1.1426-1.5374 1.6972-.52705.5708-.49282 1.4602.0762 1.9886l.9077.84244c.27094.25153.61489.37641.95815.37641.3683 0 .73589-.14358 1.0121-.42862l1.3734-1.4182c2.6797.92498 5.4271 1.3931 8.1802 1.3931 2.6448 0 5.4356-.47484 8.3506-1.4178-2.8907 2.8275-5.3231 5.4377-7.2704 7.8048h-7.7565c-.57326 0-1.0894.34749-1.3053.87842l-.84243 2.0747c-.17639.43427-.12523.92781.13617 1.3166.26212.38876.69991.62195 1.1688.62195h5.208l-.14605.22895h-6.6174c-.55386 0-1.0559.32455-1.2838.82903l-.9077 2.0094c-.19685.43568-.1591.94192.10055 1.3437.25929.40181.70485.64452 1.1832.64452h4.7378c-1.4856 2.5361-2.6811 4.572-3.586 6.1087-1.119 1.9008-1.7851 3.0424-2.0331 3.4847-.78987 1.2047-1.5857 2.3604-2.3657 3.4357-.78353 1.0791-1.5424 2.074-2.2557 2.9559-.48436.59867-.39828 1.475.19333 1.9682l.38911.32385c.25718.21413.57714.32667.9017.32667.16369 0 .32808-.0286.48613-.0868 5.2215-1.9212 9.7032-2.8949 13.32-2.8949h.71297c3.205 0 7.4228 1.1169 12.536 3.3204.18026.0772.36971.115.55703.115.41839 0 .82691-.18662 1.1007-.52881 1.2054-1.5074 2.1421-2.6709 2.8106-3.4897.89217-1.0929 1.1211-1.3374 1.1698-1.3864.0257-.0257.0505-.0526.0741-.0804l2.2691-2.6578c.25435-.29774.37324-.68827.32808-1.0774-.0455-.38911-.25047-.74154-.56656-.97331l-.97296-.71261c-.24977-.18345-.54187-.2727-.83185-.2727-.38982 0-.77646.16157-1.0534.47307l-1.384 1.5568c-3.0346-1.3046-6.1786-1.9653-9.3602-1.9653-2.7245 0-5.6818.50235-8.7898 1.493-.51576.15875-1.0647.33973-1.6422.54187 1.2407-1.1539 2.4052-2.2751 3.4876-3.357 2.3484-2.3484 4.3501-4.5942 5.9591-6.6855h7.7914c.55351 0 1.0559-.3242 1.2838-.82867l.88018-1.9491c.0984-.19226.15381-.40957.15381-.63994 0-.77787-.629-1.4083-1.4069-1.4083h-5.4526l.14182-.22965h6.7328c.54645 0 1.0435-.31609 1.2753-.81069l.9451-2.0158c.10371-.19579.16262-.41945.16262-.65652 0-.77787-.629-1.4086-1.4069-1.4086h-4.9058c1.174-2.426 2.3492-4.6898 3.5052-6.75 1.4619-2.6067 2.9319-4.978 4.3688-7.0485.3556-.51223.33196-1.197-.0575-1.6838l-.25965-.32385c-.27199-.34008-.67945-.52846-1.0996-.52846-.14287 0-.2868.02188-.42756.06668-4.7219 1.5042-8.569 2.267-11.434 2.267-3.3457 0-7.3106-.92463-11.784-2.7478-.17251-.07055-.35314-.10442-.53129-.10442m20.224 23.383h.004m2.395-5.1209h.004m-22.627-16.853c4.6669 1.9022 8.7718 2.8522 12.316 2.8522 3.0244 0 6.9783-.77752 11.862-2.3336l.25965.3242c-1.4697 2.1177-2.9496 4.505-4.4404 7.1624-1.4908 2.6578-2.993 5.607-4.5046 8.848h7.13l-.97261 2.0743h-7.5188l-1.88 3.0466h7.9728l-.90734 2.0091h-8.4914c-1.6429 2.2042-3.7271 4.5699-6.2555 7.0979-2.528 2.5284-5.4769 5.2405-8.8477 8.1354l.12948.25894c1.6422-.73413 3.1538-1.3712 4.5378-1.9121 1.3822-.5401 2.6349-.98284 3.7592-1.3286 2.9817-.95038 5.769-1.4263 8.3619-1.4263 3.327 0 6.568.75636 9.7229 2.2684l2.074-2.3333.9726.71296-2.2687 2.6575c-.17322.17357-.59443.67063-1.264 1.4908-.67063.82162-1.6101 1.9886-2.8198 3.5006-5.3153-2.2902-9.6806-3.4357-13.094-3.4357h-.71297c-3.8029 0-8.4056.99483-13.806 2.982l-.38911-.3242c.73413-.9077 1.5007-1.9121 2.3008-3.0145.7994-1.1017 1.6097-2.2786 2.4306-3.5327.21625-.3884.89676-1.5554 2.0419-3.5003 1.1448-1.9445 2.7548-4.6881 4.8295-8.2317h-7.1953l.9077-2.0098h7.3893l1.9445-3.0462h-7.7784l.84278-2.0743h8.4264c3.1976-3.9751 7.7788-8.6212 13.742-13.936-5.618 3.1552-10.782 4.7322-15.492 4.7322-2.8956 0-5.7478-.54011-8.5559-1.6207l-2.0094 2.0743-.9077-.84279c.51859-.56127 1.0372-1.1342 1.5558-1.7177.51859-.5835 1.0375-1.1991 1.5554-1.8475l3.0469-3.7596"
              fill="#760d28"/>
    </g>
</svg>
