<?xml version="1.0" encoding="UTF-8"?>
<svg width="120.62mm" height="117.48mm" version="1.1" viewBox="0 0 120.62 117.48" xmlns="http://www.w3.org/2000/svg">
    <g transform="translate(-43.258 -75.066)">
        <g transform="matrix(.35278 0 0 -.35278 90.848 90.941)">
            <path d="m0 0h-9v18h-18v9h-18v9h-36v-9h-18v-9h-9v-27h-9v-27l18-18 18-54 54-54h9v-36l-36 36h-18l-18-18v-54h-27l-9-9v-27l9-9h126l9 27h36l9-27h126l9 9v27l-9 9h-18l-9 54-18 18h-18l-36-36v27l63 63 18 54 18 18v27l-9 27-9 9-18 9h-36l-36-18-9-18z"
                  fill="#3ab54a"/>
        </g>
        <path d="m154.35 84.591h3.175v9.525h-3.175z" fill="#006738"/>
        <path d="m157.52 106.82h3.175v-12.7h-3.175z" fill="#006738"/>
        <path d="m157.52 103.64h-3.175v6.35h3.175z" fill="#006738"/>
        <path d="m154.35 106.82h-3.175v6.35h3.175z" fill="#006738"/>
        <g transform="matrix(.35278 0 0 -.35278 62.273 119.52)">
            <path d="m0 0h63v-9h27v-9h54v9h27v9h63v-27l-45-45-18-9h-108l-18 9-45 45z" fill="#2b9237"/>
        </g>
        <path d="m81.323 78.241h-22.225v-3.175h22.225z" fill="#006738"/>
        <path d="m84.498 78.241h-9.525v3.175h9.525z" fill="#006738"/>
        <path d="m87.673 81.416h-6.35v3.175h6.35z" fill="#006738"/>
        <path d="m90.848 84.591h-3.175v6.35h3.175z" fill="#006738"/>
        <path d="m55.923 78.241h6.35v3.175h-6.35z" fill="#006738"/>
        <path d="m52.748 81.416h3.175v3.175h-3.175z" fill="#006738"/>
        <path d="m52.748 84.591h-3.175v9.525h3.175z" fill="#006738"/>
        <path d="m49.573 106.82h-3.175v-12.7h3.175z" fill="#006738"/>
        <path d="m49.573 103.64h3.175v6.35h-3.175z" fill="#006738"/>
        <path d="m52.748 106.82h3.175v6.35h-3.175z" fill="#006738"/>
        <path d="m55.923 109.99h3.175v12.7h-3.175z" fill="#006738"/>
        <path d="m59.098 119.52h3.175v12.7h-3.175z" fill="#006738"/>
        <path d="m62.273 129.04h3.175v6.35h-3.175z" fill="#006738"/>
        <path d="m65.448 132.22h3.175v6.35h-3.175z" fill="#006738"/>
        <path d="m68.623 135.39h3.175v6.35h-3.175z" fill="#006738"/>
        <path d="m71.798 138.57h3.175v6.35h-3.175z" fill="#006738"/>
        <path d="m74.973 141.74h3.175v6.35h-3.175z" fill="#006738"/>
        <path d="m94.023 97.291h-3.175v-6.35h3.175z" fill="#006738"/>
        <path d="m90.848 103.64h-3.175v-6.35h3.175z" fill="#006738"/>
        <path d="m103.55 94.116h-9.525v-3.175h9.525z" fill="#006738"/>
        <path d="m84.498 148.09h-6.35v-3.175h6.35z" fill="#006738"/>
        <path d="m81.323 148.09h6.35v3.175h-6.35z" fill="#006738"/>
        <path d="m87.673 148.09h15.875v3.175h-15.875z" fill="#006738"/>
        <path d="m87.673 192.54h-3.175v-41.275h3.175z" fill="#006738"/>
        <path d="m87.673 189.37h6.35v3.175h-6.35z" fill="#006738"/>
        <path d="m94.023 183.02h6.35v6.35h-6.35z" fill="#006738"/>
        <path d="m97.198 186.19h-3.175v-3.175h3.175z" fill="#006738"/>
        <path d="m97.198 183.02h-3.175v-19.05h3.175z" fill="#006738"/>
        <path d="m103.55 179.84h-6.35v-3.175h6.35z" fill="#006738"/>
        <path d="m81.323 157.62h3.175v3.175h-3.175z" fill="#006738"/>
        <path d="m81.323 157.62h-3.175v-3.175h3.175z" fill="#006738"/>
        <path d="m78.148 154.44h-3.175v-3.175h3.175z" fill="#006738"/>
        <path d="m74.973 151.27h-3.175v-3.175h3.175z" fill="#006738"/>
        <path d="m71.798 148.09h-6.35v-3.175h6.35z" fill="#006738"/>
        <path d="m65.448 148.09h-3.175v3.175h3.175z" fill="#006738"/>
        <path d="m62.273 151.27h-3.175v3.175h3.175z" fill="#006738"/>
        <path d="m59.098 173.49h-3.175v-19.05h3.175z" fill="#006738"/>
        <path d="m59.098 167.14h3.175v9.525h-3.175z" fill="#006738"/>
        <path d="m62.273 173.49h3.175v6.35h-3.175z" fill="#006738"/>
        <path d="m65.448 176.67h3.175v3.175h-3.175z" fill="#006738"/>
        <path d="m55.923 173.49h-6.35v-3.175h6.35z" fill="#006738"/>
        <path d="m49.573 173.49h-3.175v3.175h3.175z" fill="#006738"/>
        <path d="m46.398 186.19h3.175v3.175h-3.175z" fill="#006738"/>
        <path d="m49.573 189.37h34.925v3.175h-34.925z" fill="#006738"/>
        <path d="m74.973 90.941h-9.525v-3.175h9.525z" fill="#fff"/>
        <path d="m65.448 103.64h-3.175v-12.7h3.175z" fill="#fff"/>
        <path d="m74.973 103.64h-9.525v3.175h9.525z" fill="#fff"/>
        <path d="m78.148 103.64h-3.175v-12.7h3.175z" fill="#fff"/>
        <path d="m78.148 94.116h3.175v6.35h-3.175z" fill="#fff"/>
        <path d="m74.973 103.64h-9.525v-12.7h9.525z" fill="#fff"/>
        <path d="m74.973 100.47h-6.35v-6.35h6.35z"/>
        <path d="m90.848 135.39h-6.35v-3.175h6.35z" fill="#006738"/>
        <path d="m103.55 135.39h-15.875v3.175h15.875z" fill="#006738"/>
        <path d="m94.023 122.69h-3.175v-3.175h3.175z" fill="#006738"/>
        <path d="m94.023 122.69h3.175v3.175h-3.175z" fill="#006738"/>
        <path d="m94.023 189.37h6.35v3.175h-6.35z" fill="#006738"/>
        <path d="m125.77 78.241h22.225v-3.175h-22.225z" fill="#006738"/>
        <path d="m122.6 78.241h9.525v3.175h-9.525z" fill="#006738"/>
        <path d="m119.42 81.416h6.35v3.175h-6.35z" fill="#006738"/>
        <path d="m116.25 84.591h3.175v6.35h-3.175z" fill="#006738"/>
        <path d="m151.17 78.241h-6.35v3.175h6.35z" fill="#006738"/>
        <path d="m154.35 81.416h-3.175v3.175h3.175z" fill="#006738"/>
        <path d="m151.17 109.99h-3.175v12.7h3.175z" fill="#006738"/>
        <path d="m148 119.52h-3.175v12.7h3.175z" fill="#006738"/>
        <path d="m144.82 129.04h-3.175v6.35h3.175z" fill="#006738"/>
        <path d="m141.65 132.22h-3.175v6.35h3.175z" fill="#006738"/>
        <path d="m138.47 135.39h-3.175v6.35h3.175z" fill="#006738"/>
        <path d="m135.3 138.57h-3.175v6.35h3.175z" fill="#006738"/>
        <path d="m132.12 141.74h-3.175v6.35h3.175z" fill="#006738"/>
        <path d="m113.07 97.291h3.175v-6.35h-3.175z" fill="#006738"/>
        <path d="m116.25 103.64h3.175v-6.35h-3.175z" fill="#006738"/>
        <path d="m103.55 94.116h9.525v-3.175h-9.525z" fill="#006738"/>
        <path d="m122.6 148.09h6.35v-3.175h-6.35z" fill="#006738"/>
        <path d="m125.77 148.09h-6.35v3.175h6.35z" fill="#006738"/>
        <path d="m119.42 148.09h-15.875v3.175h15.875z" fill="#006738"/>
        <path d="m119.42 192.54h3.175v-41.275h-3.175z" fill="#006738"/>
        <path d="m119.42 189.37h-6.35v3.175h6.35z" fill="#006738"/>
        <path d="m113.07 183.02h-6.35v6.35h6.35z" fill="#006738"/>
        <path d="m109.9 186.19h3.175v-3.175h-3.175z" fill="#006738"/>
        <path d="m109.9 183.02h3.175v-19.05h-3.175z" fill="#006738"/>
        <path d="m103.55 179.84h6.35v-3.175h-6.35z" fill="#006738"/>
        <path d="m125.77 157.62h-3.175v3.175h3.175z" fill="#006738"/>
        <path d="m125.77 157.62h3.175v-3.175h-3.175z" fill="#006738"/>
        <path d="m128.95 154.44h3.175v-3.175h-3.175z" fill="#006738"/>
        <path d="m132.12 151.27h3.175v-3.175h-3.175z" fill="#006738"/>
        <path d="m135.3 148.09h6.35v-3.175h-6.35z" fill="#006738"/>
        <path d="m141.65 148.09h3.175v3.175h-3.175z" fill="#006738"/>
        <path d="m144.82 151.27h3.175v3.175h-3.175z" fill="#006738"/>
        <path d="m148 173.49h3.175v-19.05h-3.175z" fill="#006738"/>
        <path d="m148 167.14h-3.175v9.525h3.175z" fill="#006738"/>
        <path d="m144.82 173.49h-3.175v6.35h3.175z" fill="#006738"/>
        <path d="m141.65 176.67h-3.175v3.175h3.175z" fill="#006738"/>
        <path d="m151.17 173.49h6.35v-3.175h-6.35z" fill="#006738"/>
        <path d="m157.52 173.49h3.175v3.175h-3.175z" fill="#006738"/>
        <path d="m160.7 176.67h3.175v9.525h-3.175z" fill="#006738"/>
        <path d="m160.7 186.19h-3.175v3.175h3.175z" fill="#006738"/>
        <path d="m157.52 189.37h-34.925v3.175h34.925z" fill="#006738"/>
        <path d="m132.12 90.941h9.525v-3.175h-9.525z" fill="#fff"/>
        <path d="m141.65 103.64h3.175v-12.7h-3.175z" fill="#fff"/>
        <path d="m132.12 103.64h9.525v3.175h-9.525z" fill="#fff"/>
        <path d="m128.95 103.64h3.175v-12.7h-3.175z" fill="#fff"/>
        <path d="m128.95 94.116h-3.175v6.35h3.175z" fill="#fff"/>
        <path d="m132.12 103.64h9.525v-12.7h-9.525z" fill="#fff"/>
        <path d="m132.12 100.47h6.35v-6.35h-6.35z"/>
        <path d="m116.25 135.39h6.35v-3.175h-6.35z" fill="#006738"/>
        <path d="m103.55 135.39h15.875v3.175h-15.875z" fill="#006738"/>
        <path d="m113.07 122.69h3.175v-3.175h-3.175z" fill="#006738"/>
        <path d="m113.07 122.69h-3.175v3.175h3.175z" fill="#006738"/>
        <path d="m113.07 189.37h-6.35v3.175h6.35z" fill="#006738"/>
        <path d="m81.323 170.32h3.175v3.175h-3.175z" fill="#006738"/>
        <path d="m81.323 170.32h-6.35v-3.175h6.35z" fill="#006738"/>
        <path d="m78.148 167.14h-6.35v-3.175h6.35z" fill="#006738"/>
        <path d="m74.973 163.97h-6.35v-3.175h6.35z" fill="#006738"/>
        <path d="m125.77 170.32h-3.175v3.175h3.175z" fill="#006738"/>
        <path d="m125.77 170.32h3.175v-3.175h-3.175z" fill="#006738"/>
        <path d="m128.95 170.32h3.175v-3.175h-3.175z" fill="#006738"/>
        <path d="m135.3 167.14h-6.35v-3.175h6.35z" fill="#006738"/>
        <path d="m138.47 163.97h-6.35v-3.175h6.35z" fill="#006738"/>
        <path d="m94.023 189.37h-6.35v-38.1h6.35z" fill="#2b9237"/>
        <path d="m119.42 189.37h-6.35v-38.1h6.35z" fill="#2b9237"/>
        <path d="m113.07 163.97h-19.05v-12.7h19.05z" fill="#2b9237"/>
        <path d="m71.798 167.14h-3.175v-3.175h3.175z" fill="#2b9237"/>
        <path d="m71.798 167.14h3.175v6.35h-3.175z" fill="#2b9237"/>
        <path d="m74.973 170.32h6.35v3.175h-6.35z" fill="#2b9237"/>
        <path d="m78.148 173.49h6.35v3.175h-6.35z" fill="#2b9237"/>
        <path d="m135.3 167.14h3.175v-3.175h-3.175z" fill="#2b9237"/>
        <path d="m132.12 167.14h3.175v6.35h-3.175z" fill="#2b9237"/>
        <path d="m132.12 170.32h-6.35v3.175h6.35z" fill="#2b9237"/>
        <path d="m128.95 173.49h-6.35v3.175h6.35z" fill="#2b9237"/>
        <path d="m78.148 163.97h-3.175v-3.175h3.175z" fill="#2b9237"/>
        <path d="m78.148 163.97h3.175v3.175h-3.175z" fill="#2b9237"/>
        <path d="m81.323 167.14h3.175v3.175h-3.175z" fill="#2b9237"/>
        <path d="m125.77 167.14h-3.175v3.175h3.175z" fill="#2b9237"/>
        <path d="m125.77 167.14h3.175v-3.175h-3.175z" fill="#2b9237"/>
        <path d="m128.95 163.97h3.175v-3.175h-3.175z" fill="#2b9237"/>
        <path d="m84.498 189.37h-34.925v-3.175h34.925z" fill="#2b9237"/>
        <path d="m122.6 186.19h34.925v3.175h-34.925z" fill="#2b9237"/>
        <path d="m97.198 189.37h-3.175v-3.175h3.175z" fill="#2b9237"/>
        <path d="m109.9 189.37h3.175v-3.175h-3.175z" fill="#2b9237"/>
        <path d="m43.258 186.19h3.175v-9.525h-3.175z" fill="#006738"/>
    </g>
</svg>
