<?xml version="1.0" encoding="UTF-8"?>
<svg width="113.69mm" height="215.9mm" version="1.1" viewBox="0 0 113.69 215.9" xmlns="http://www.w3.org/2000/svg">
    <defs>
        <clipPath id="clipPath350">
            <path d="m317.61 447.49h53.217v-26.608h-53.217z"/>
        </clipPath>
        <clipPath id="clipPath364">
            <path d="m330.91 420.88h26.608v-13.304h-26.608z"/>
        </clipPath>
    </defs>
    <g transform="translate(-46.719 -20.563)">
        <g transform="matrix(.35278 0 0 -.35278 46.74 187.78)">
            <path d="m0 0-.05-.05c0 .03-.01.05-.01.08z" fill="#cdebfc"/>
        </g>
        <g transform="matrix(.35278 0 0 -.35278 46.74 187.78)">
            <path d="m0 0-.05-.05c0 .03-.01.05-.01.08z" fill="#8fb7d1"/>
        </g>
        <g transform="matrix(.35278 0 0 -.35278 46.74 187.78)">
            <path d="m0 0-.05-.05c0 .03-.01.05-.01.08z" fill="#8fb7d1"/>
        </g>
        <path d="m155.72 222.38h-28.16v9.3867h28.16z" fill="#33313c"/>
        <path d="m71.237 231.77h-14.08v-9.3867h14.08z" fill="#33313c"/>
        <path d="m122.86 76.884h-46.934v42.241h46.934z" fill="#fbc89b"/>
        <path d="m57.156 161.37h75.095v-28.161h-75.095z" fill="#6c799c"/>
        <path d="m94.704 166.06h14.08v14.08h-14.08z" fill="#6c799c"/>
        <path d="m136.94 203.61h-9.3867v-14.08h9.3867z" fill="#6c799c"/>
        <path d="m90.011 203.61h-23.467v-14.08h23.467z" fill="#6c799c"/>
        <path d="m57.156 72.191v-9.3867h4.6934v-4.6937h4.6934v-4.6934h4.6937v-4.6934h4.6934v-4.6937h46.934v4.6937h4.6937v4.6934h4.6934v4.6934h4.6934v4.6937h4.6937v18.773h-9.3871v-4.6934h-4.6934v-4.6934h-4.6937v-4.6934h-4.6934v-4.6934h-9.3867v-4.6937h-28.161v4.6937h-4.6934v4.6934h-4.6934v4.6934h-4.6937v4.6934h-9.3867z"
              fill="#33313c"/>
        <path d="m61.85 76.884v14.08h4.6934v4.6934h4.6934v-9.3871h9.3871v-4.6934h9.3871v-4.6934h4.6934v-4.6934h4.6934v-4.6934h4.6933v9.3867h4.6934v4.6934h4.6937v9.3871h9.3867v4.6934h4.6937v-9.3871h9.3867v-4.6934h-4.6934v-4.6934h-4.6934v-4.6934h-4.6937v-4.6934h-4.6934v-4.6937h-9.3871v-4.6934h-28.16v4.6934h-4.6934v4.6937h-4.6937v4.6934h-4.6934v4.6934z"
              fill="#674941"/>
        <path d="m66.543 133.21h18.774v-4.6934h-18.774z" fill="#39425f"/>
        <path d="m66.543 133.21h-9.3867v4.6934h9.3867z" fill="#39425f"/>
        <path d="m57.156 137.9h-4.6934v9.3871h4.6934z" fill="#39425f"/>
        <path d="m52.463 161.37h-4.6934v-14.08h4.6934z" fill="#39425f"/>
        <path d="m52.463 161.37h18.774v4.6934h-18.774z" fill="#39425f"/>
        <path d="m80.624 161.37h-9.3867v-4.6934h9.3867z" fill="#39425f"/>
        <path d="m90.011 156.67h-9.3871v-4.6934h9.3871z" fill="#39425f"/>
        <path d="m94.704 147.29h-4.6934v4.6934h4.6934z" fill="#39425f"/>
        <path d="m94.704 137.9h-9.3867v-4.6934h9.3867z" fill="#39425f"/>
        <path d="m94.704 147.29h-4.6934v-9.3871h4.6934z" fill="#39425f"/>
        <path d="m94.704 147.29h4.6934v-4.6937h-4.6934z" fill="#39425f"/>
        <path d="m71.237 180.14h-4.6934v-14.08h4.6934z" fill="#39425f"/>
        <path d="m85.317 180.14h-14.08v-4.6934h14.08z" fill="#39425f"/>
        <path d="m136.94 180.14h-56.321v4.6934h56.321z" fill="#39425f"/>
        <path d="m113.48 180.14h-4.6934v-9.3867h4.6934z" fill="#39425f"/>
        <path d="m136.94 180.14h-4.6934v-9.3867h4.6934z" fill="#39425f"/>
        <path d="m108.78 166.06h-14.08v-4.6934h14.08z" fill="#39425f"/>
        <path d="m108.78 166.06h9.3867v4.6934h-9.3867z" fill="#39425f"/>
        <path d="m136.94 166.06h-18.774v-4.6934h18.774z" fill="#39425f"/>
        <path d="m136.94 166.06h-4.6934v4.6934h4.6934z" fill="#39425f"/>
        <path d="m141.64 166.06h-4.6934v-4.6934h4.6934z" fill="#39425f"/>
        <path d="m146.33 161.37h-4.6934v-4.6934h4.6934z" fill="#39425f"/>
        <path d="m151.03 156.67h-4.6934v-9.3867h4.6934z" fill="#39425f"/>
        <path d="m146.33 147.29h-4.6934v-4.6937h4.6934z" fill="#39425f"/>
        <path d="m141.64 142.59h-4.6934v-9.3867h4.6934z" fill="#39425f"/>
        <path d="m136.94 137.9h-9.3867v-4.6934h9.3867z" fill="#39425f"/>
        <path d="m118.17 133.21h9.3871v-4.6934h-9.3871z" fill="#39425f"/>
        <path d="m113.48 133.21h4.6934v9.3867h-4.6934z" fill="#39425f"/>
        <path d="m113.48 147.29h-4.6934v-4.6937h4.6934z" fill="#39425f"/>
        <path d="m66.543 189.53h-4.6934v-9.3867h4.6934z" fill="#39425f"/>
        <path d="m61.85 189.53h4.6934v9.3871h-4.6934z" fill="#39425f"/>
        <path d="m61.85 212.99h-4.6934v-14.08h4.6934z" fill="#39425f"/>
        <path d="m61.85 212.99h23.467v4.6934h-23.467z" fill="#39425f"/>
        <path d="m90.011 212.99h-4.6934v-4.6934h4.6934z" fill="#39425f"/>
        <path d="m94.704 208.3h-4.6934v-9.3867h4.6934z" fill="#39425f"/>
        <path d="m104.09 198.91h-9.3867v-4.6934h9.3867z" fill="#39425f"/>
        <path d="m104.09 198.91h4.6934v4.6934h-4.6934z" fill="#39425f"/>
        <path d="m108.78 203.61h4.6934v4.6934h-4.6934z" fill="#39425f"/>
        <path d="m113.48 208.3h4.6934v4.6934h-4.6934z" fill="#39425f"/>
        <path d="m118.17 208.3h28.161v4.6934h-28.161z" fill="#39425f"/>
        <path d="m146.33 208.3h-4.6934v-9.3867h4.6934z" fill="#39425f"/>
        <path d="m141.64 198.91h-4.6934v-9.3871h4.6934z" fill="#39425f"/>
        <path d="m136.94 189.53h-4.6934v-4.6934h4.6934z" fill="#39425f"/>
        <path d="m57.156 161.37h-4.6934v-14.08h4.6934z" fill="#4c5679"/>
        <path d="m71.237 161.37h-14.08v-9.3867h14.08z" fill="#4c5679"/>
        <path d="m80.624 156.67h-9.3867v-9.3867h9.3867z" fill="#4c5679"/>
        <path d="m80.624 142.59h9.3871v9.3871h-9.3871z" fill="#4c5679"/>
        <path d="m94.77 175.45h-23.533v-14.08h23.533z" fill="#4c5679"/>
        <path d="m99.397 180.14h-14.08v-4.6934h14.08z" fill="#4c5679"/>
        <path d="m99.397 170.75h-4.6934v-4.6934h4.6934z" fill="#4c5679"/>
        <path d="m132.25 180.14h-18.774v-9.3867h18.774z" fill="#4c5679"/>
        <path d="m132.25 170.75h-14.08v-4.6934h14.08z" fill="#4c5679"/>
        <path d="m113.48 161.37h-14.08v-4.6934h14.08z" fill="#4c5679"/>
        <path d="m118.17 161.37h-9.3867v4.6934h9.3867z" fill="#4c5679"/>
        <path d="m141.64 161.37h-28.161v-4.6934h28.161z" fill="#4c5679"/>
        <path d="m146.33 156.67h-23.467v-4.6934h23.467z" fill="#4c5679"/>
        <path d="m146.33 151.98h-14.08v-4.6934h14.08z" fill="#4c5679"/>
        <path d="m141.64 147.29h-9.3867v-4.6937h9.3867z" fill="#4c5679"/>
        <path d="m136.94 142.59h-4.6934v-4.6934h4.6934z" fill="#4c5679"/>
        <path d="m80.624 184.83h-14.08v-4.6934h14.08z" fill="#4c5679"/>
        <path d="m132.25 189.53h-65.708v-4.6934h65.708z" fill="#4c5679"/>
        <path d="m94.704 198.91h-4.6934v-9.3871h4.6934z" fill="#4c5679"/>
        <path d="m127.56 194.22h-32.854v-4.6937h32.854z" fill="#4c5679"/>
        <path d="m113.48 198.91h-9.3867v-4.6934h9.3867z" fill="#4c5679"/>
        <path d="m132.25 203.61h-23.467v-4.6934h23.467z" fill="#4c5679"/>
        <path d="m141.64 208.3h-28.161v-4.6934h28.161z" fill="#4c5679"/>
        <path d="m141.64 203.61h-4.6934v-4.6934h4.6934z" fill="#4c5679"/>
        <path d="m66.543 212.99h-4.6934v-14.08h4.6934z" fill="#4c5679"/>
        <path d="m85.317 212.99h-18.774v-9.3867h18.774z" fill="#4c5679"/>
        <path d="m90.011 203.61h-4.6934v-4.6934h4.6934z" fill="#4c5679"/>
        <path d="m85.317 203.61h4.6934v4.6934h-4.6934z" fill="#4c5679"/>
        <path d="m136.94 198.91h-23.467v-4.6934h23.467z" fill="#6c799c"/>
        <path d="m94.704 161.37h-9.3867v-4.6934h9.3867z" fill="#39425f"/>
        <path d="m85.317 161.37h-4.6937v-4.6934h4.6937z" fill="#4c5679"/>
        <g transform="matrix(.35278 0 0 -.35278 -17.34 291.07)">
            <g clip-path="url(#clipPath350)" opacity=".85001">
                <path d="m370.82 420.88h-53.217v26.608h53.217z" fill="#fff"/>
            </g>
        </g>
        <g transform="matrix(.35278 0 0 -.35278 -17.34 291.07)">
            <g clip-path="url(#clipPath364)" opacity=".85001">
                <path d="m357.52 420.88h-26.608v-13.305h26.608z" fill="#fff"/>
            </g>
        </g>
        <path d="m113.48 133.21h-18.774v-4.6934h18.774z" fill="#4c5679"/>
        <path d="m94.704 175.45h-4.6934v-4.6934h4.6934z" fill="#e8b42d"/>
        <path d="m94.704 166.06h-4.6934v-4.6934h4.6934z" fill="#e8b42d"/>
        <path d="m108.78 175.45h-4.6934v-4.6934h4.6934z" fill="#f9cb70"/>
        <path d="m85.317 142.59h-4.6937v-9.3867h4.6937z" fill="#f9cb70"/>
        <path d="m104.09 156.67h-4.6934v-9.3867h4.6934z" fill="#f9cb70"/>
        <path d="m85.317 151.98h-4.6937v-9.3871h4.6937z" fill="#e8b42d"/>
        <path d="m104.09 161.37h-4.6934v-4.6934h4.6934z" fill="#e8b42d"/>
        <path d="m61.85 44.03h-4.6934v18.774h4.6934z" fill="#39425f"/>
        <path d="m66.543 44.03h-4.6934v-9.3867h4.6934z" fill="#39425f"/>
        <path d="m71.237 39.337h-4.6934v-9.3867h4.6934z" fill="#39425f"/>
        <path d="m90.011 29.95h-18.774v-4.6934h18.774z" fill="#39425f"/>
        <path d="m118.17 25.256h-32.854v-4.6934h32.854z" fill="#39425f"/>
        <path d="m113.48 25.256h14.08v4.6934h-14.08z" fill="#39425f"/>
        <path d="m122.86 29.95h14.08v4.6934h-14.08z" fill="#39425f"/>
        <path d="m132.25 34.643h9.3867v4.6934h-9.3867z" fill="#39425f"/>
        <path d="m141.64 39.337h-4.6934v9.3867h4.6934z" fill="#39425f"/>
        <path d="m136.94 48.723h4.6934v14.08h-4.6934z" fill="#39425f"/>
        <path d="m66.543 58.11h-4.6934v-14.08h4.6934z" fill="#4c5679"/>
        <path d="m71.237 53.417h-4.6934v-14.08h4.6934z" fill="#4c5679"/>
        <path d="m75.93 48.723h-4.6934v-18.774h4.6934z" fill="#4c5679"/>
        <path d="m75.93 29.95h4.6934v14.08h-4.6934z" fill="#4c5679"/>
        <path d="m80.624 34.643h4.6937v-4.6934h-4.6937z" fill="#4c5679"/>
        <path d="m80.624 34.643h4.6937v9.3867h-4.6937z" fill="#4c5679"/>
        <path d="m104.09 29.95h-14.08v-4.6934h14.08z" fill="#4c5679"/>
        <path d="m90.011 29.95h4.6934v4.6934h-4.6934z" fill="#4c5679"/>
        <path d="m104.09 34.643h-4.6934v-4.6934h4.6934z" fill="#4c5679"/>
        <path d="m104.09 34.643h4.6934v4.6934h-4.6934z" fill="#4c5679"/>
        <path d="m113.48 29.95h-4.6934v-4.6934h4.6934z" fill="#4c5679"/>
        <path d="m118.17 44.03h-4.6934v-9.3867h4.6934z" fill="#4c5679"/>
        <path d="m118.17 39.337h4.6934v4.6934h-4.6934z" fill="#4c5679"/>
        <path d="m122.86 44.03h4.6937v4.6934h-4.6937z" fill="#4c5679"/>
        <path d="m127.56 48.723h4.6934v4.6937h-4.6934z" fill="#4c5679"/>
        <path d="m132.25 53.417h4.6934v4.6934h-4.6934z" fill="#4c5679"/>
        <path d="m132.25 39.337h-4.6934v-4.6934h4.6934z" fill="#4c5679"/>
        <path d="m99.397 44.03h-4.6934v-4.6934h4.6934z" fill="#4c5679"/>
        <path d="m122.86 34.643h-9.3867v-4.6934h9.3867z" fill="#6c799c"/>
        <path d="m118.17 34.643h9.3871v4.6934h-9.3871z" fill="#6c799c"/>
        <path d="m136.94 44.03h-14.08v-4.6934h14.08z" fill="#6c799c"/>
        <path d="m127.56 44.03h9.3867v4.6934h-9.3867z" fill="#6c799c"/>
        <path d="m132.25 48.723h4.6934v4.6937h-4.6934z" fill="#6c799c"/>
        <path d="m90.011 44.03h-4.6934v-14.08h4.6934z" fill="#e8b42d"/>
        <path d="m104.09 39.337h-14.08v-4.6934h14.08z" fill="#e8b42d"/>
        <path d="m99.397 34.643h-4.6934v-4.6934h4.6934z" fill="#e8b42d"/>
        <path d="m90.011 39.337h4.6934v4.6934h-4.6934z" fill="#e8b42d"/>
        <path d="m99.397 39.337h4.6934v4.6934h-4.6934z" fill="#e8b42d"/>
        <path d="m108.78 34.643h-4.6934v-4.6934h4.6934z" fill="#e8b42d"/>
        <path d="m108.78 29.95h4.6934v14.08h-4.6934z" fill="#4c5679"/>
        <path d="m108.78 44.03h-4.6934v-4.6934h4.6934z" fill="#4c5679"/>
        <path d="m108.78 29.95h-4.6934v-4.6934h4.6934z" fill="#4c5679"/>
        <path d="m61.85 90.964h-4.6934v-14.08h4.6934z" fill="#3d2825"/>
        <path d="m61.85 90.964h4.6934v23.467h-4.6934z" fill="#3d2825"/>
        <path d="m71.237 114.43h-4.6934v4.6934h4.6934z" fill="#3d2825"/>
        <path d="m66.543 76.884h-4.6934v4.6934h4.6934z" fill="#3d2825"/>
        <path d="m71.237 72.19h-4.6934v4.6934h4.6934z" fill="#3d2825"/>
        <path d="m75.93 67.497h-4.6934v4.6934h4.6934z" fill="#3d2825"/>
        <path d="m122.86 67.497h-4.6934v4.6934h4.6934z" fill="#3d2825"/>
        <path d="m127.56 72.19h-4.6937v4.6934h4.6937z" fill="#3d2825"/>
        <path d="m136.94 81.577h-4.6934v4.6934h4.6934z" fill="#3d2825"/>
        <path d="m80.624 62.804h-4.6934v4.6934h4.6934z" fill="#3d2825"/>
        <path d="m118.17 62.804h-9.3867v4.6934h9.3867z" fill="#3d2825"/>
        <path d="m108.78 58.11h-28.161v4.6934h28.161z" fill="#3d2825"/>
        <path d="m71.237 119.13h4.6934v4.6934h-4.6934z" fill="#3d2825"/>
        <path d="m75.93 123.82h4.6934v4.6934h-4.6934z" fill="#3d2825"/>
        <path d="m118.17 133.21h-4.6934v-9.3867h4.6934z" fill="#3d2825"/>
        <path d="m118.17 123.82h4.6934v-4.6934h-4.6934z" fill="#3d2825"/>
        <path d="m122.86 119.13h4.6937v-4.6934h-4.6937z" fill="#3d2825"/>
        <path d="m127.56 114.43h4.6934v-9.3867h-4.6934z" fill="#3d2825"/>
        <path d="m132.25 109.74h4.6934v-14.08h-4.6934z" fill="#3d2825"/>
        <path d="m136.94 100.35h4.6934v-9.3871h-4.6934z" fill="#3d2825"/>
        <path d="m136.94 90.964h4.6934v-9.3867h-4.6934z" fill="#3d2825"/>
        <path d="m66.543 100.35h9.3867v-4.6937h-9.3867z" fill="#3d2825"/>
        <path d="m75.93 100.35h-4.6934v4.6934h4.6934z" fill="#3d2825"/>
        <path d="m75.93 105.04h9.3871v4.6934h-9.3871z" fill="#3d2825"/>
        <path d="m108.78 105.04h-23.467v-4.6934h23.467z" fill="#3d2825"/>
        <path d="m108.78 105.04h9.3867v4.6934h-9.3867z" fill="#3d2825"/>
        <path d="m127.56 105.04h-4.6937v-9.3871h4.6937z" fill="#3d2825"/>
        <path d="m118.17 105.04h4.6934v4.6934h-4.6934z" fill="#3d2825"/>
        <path d="m122.86 95.658h-9.3867v-4.6934h9.3867z" fill="#3d2825"/>
        <path d="m75.93 95.658h-4.6934v-9.3867h4.6934z" fill="#3d2825"/>
        <path d="m75.93 86.271h9.3871v4.6934h-9.3871z" fill="#3d2825"/>
        <path d="m80.624 81.577h9.3871v4.6934h-9.3871z" fill="#3d2825"/>
        <path d="m94.704 86.271h-4.6934v-9.3867h4.6934z" fill="#3d2825"/>
        <path d="m99.397 81.577h-4.6934v-9.3867h4.6934z" fill="#3d2825"/>
        <path d="m99.397 67.497h4.6934v9.3867h-4.6934z" fill="#3d2825"/>
        <path d="m104.09 76.884h4.6934v4.6934h-4.6934z" fill="#3d2825"/>
        <path d="m108.78 81.577h4.6934v14.08h-4.6934z" fill="#3d2825"/>
        <path d="m132.25 100.35h-4.6934v-14.08h4.6934z" fill="#3d2825"/>
        <path d="m132.25 86.271h4.6934v9.3867h-4.6934z" fill="#3d2825"/>
        <path d="m71.237 114.43h-4.6934v-14.08h4.6934z" fill="#674941"/>
        <path d="m71.237 105.04h4.6934v14.08h-4.6934z" fill="#674941"/>
        <path d="m75.93 109.74h4.6934v14.08h-4.6934z" fill="#674941"/>
        <path d="m80.624 109.74h4.6937v18.774h-4.6937z" fill="#674941"/>
        <path d="m85.317 105.04h23.467v4.6934h-23.467z" fill="#674941"/>
        <path d="m94.704 133.21h-9.3867v-14.08h9.3867z" fill="#674941"/>
        <path d="m94.704 119.13h18.774v9.3867h-18.774z" fill="#674941"/>
        <path d="m118.17 123.82h-9.3867v-9.3867h9.3867z" fill="#674941"/>
        <path d="m122.86 119.13h-9.3867v-9.3867h9.3867z" fill="#674941"/>
        <path d="m122.86 114.43h4.6937v-9.3867h-4.6937z" fill="#674941"/>
        <path d="m127.56 105.04h4.6934v-4.6934h-4.6934z" fill="#674941"/>
        <path d="m104.09 100.35h-14.08v-4.6937h14.08z" fill="#dba87f"/>
        <path d="m90.011 119.13h18.774v-4.6934h-18.774z" fill="#dba87f"/>
        <path d="m104.09 81.577h-4.6934v-4.6934h4.6934z" fill="#dba87f"/>
        <path d="m99.397 86.271h-4.6934v-4.6934h4.6934z" fill="#dba87f"/>
        <path d="m94.704 86.271h-9.3867v4.6934h9.3867z" fill="#dba87f"/>
        <path d="m85.317 90.964h-9.3871v4.6934h9.3871z" fill="#dba87f"/>
        <path d="m104.09 86.271h4.6934v-4.6934h-4.6934z" fill="#dba87f"/>
        <path d="m122.86 95.658h-9.3867v4.6937h9.3867z" fill="#dba87f"/>
        <path d="m85.317 119.13h4.6934v-4.6934h-4.6934z" fill="#674941"/>
        <path d="m61.85 227.07h-4.6934v-14.08h4.6934z" fill="#2c231e"/>
        <path d="m57.156 231.77h-4.6934v-9.3867h4.6934z" fill="#2c231e"/>
        <path d="m52.463 236.46h-4.6934v-9.3867h4.6934z" fill="#2c231e"/>
        <path d="m52.463 231.77h32.854v4.6934h-32.854z" fill="#2c231e"/>
        <path d="m61.85 217.69h23.467v4.6934h-23.467z" fill="#2c231e"/>
        <path d="m71.237 222.38h14.08v9.3867h-14.08z" fill="#2c231e"/>
        <path d="m127.56 231.77h-9.3871v-18.774h9.3871z" fill="#2c231e"/>
        <path d="m122.86 231.77h32.854v4.6934h-32.854z" fill="#2c231e"/>
        <path d="m151.03 222.38h-23.467v-9.3867h23.467z" fill="#2c231e"/>
        <path d="m151.03 217.69h9.3867v9.3867h-9.3867z" fill="#2c231e"/>
        <path d="m155.72 227.07h4.6934v9.3867h-4.6934z" fill="#2c231e"/>
        <path d="m146.33 217.69h-28.301v-4.6934h28.301z" fill="#39425f"/>
        <path d="m141.64 212.99h-18.774v-4.6934h18.774z" fill="#4c5679"/>
        <path d="m132.25 203.61h-9.3871v-4.6934h9.3871z" fill="#6c799c"/>
        <path d="m132.25 208.3h4.6934v-4.6934h-4.6934z" fill="#6c799c"/>
        <path d="m136.94 194.22h-4.6934v-4.6937h4.6934z" fill="#4c5679"/>
        <path d="m136.94 198.91h-4.6934v-4.6934h4.6934z" fill="#4c5679"/>
        <path d="m136.94 95.658h-9.3867v-14.08h9.3867z" fill="#674941"/>
        <path d="m108.78 147.29h-9.3867v-4.6937h9.3867z" fill="#4c5679"/>
        <path d="m90.011 44.03h-4.6934v-9.3867h4.6934z" fill="#4c5679"/>
        <path d="m132.25 76.884h-4.6934v4.6934h4.6934z" fill="#3d2825"/>
        <path d="m136.94 81.577h-4.6934v4.6934h4.6934z" fill="#3d2825"/>
    </g>
</svg>
