<?xml version="1.0" encoding="UTF-8"?>
<svg width="677.72mm" height="54.606mm" version="1.1" viewBox="0 0 677.72 54.606" xmlns="http://www.w3.org/2000/svg">
    <g transform="translate(83.525 26.925)">
        <path d="m594.2 27.681h-677.33v-54.606h677.33z" fill="#683e2b"/>
        <path d="m594.2-4.303h-677.33v-22.622h677.33z" fill="#afc14f"/>
        <path d="m594.2-22.812h-677.33v-4.1137h677.33z" fill="#cddf5d"/>
        <g transform="matrix(.34488 0 0 -.35278 578.25 -5.2153)">
            <path d="m0 0c.001.065.012.129.012.194 0 12.198-23.744 22.087-53.033 22.087-13.264 0-25.381-2.033-34.681-5.385-9.397 6.188-25.961 10.301-44.842 10.301-7.938 0-15.463-.732-22.225-2.034-6.761 1.302-14.286 2.034-22.225 2.034-21.483 0-39.968-5.323-48.303-12.972-13.125-.25-24.996-2.489-33.939-6.007-9.687 5.296-24.984 8.717-42.204 8.717-12.952 0-24.814-1.936-34.023-5.148-9.344 6.296-26.061 10.494-45.14 10.494-29.289 0-53.032-9.889-53.032-22.087-11.298 0-21.762-1.476-30.366-3.984.566 1.293.877 2.623.877 3.984 0 12.198-23.744 22.087-53.033 22.087-20.114 0-37.612-4.664-46.601-11.537-7.321 1.589-15.637 2.491-24.463 2.491-13.757 0-26.289-2.182-35.714-5.759-7.227 8.619-26.908 14.805-50.068 14.805-10.817 0-20.872-1.352-29.26-3.668-8.387 2.316-18.443 3.668-29.259 3.668-28.876 0-52.345-9.614-53.002-21.574-8.856 2.765-19.855 4.402-31.774 4.402-13.092 0-25.066-1.979-34.316-5.253.004.113.02.225.02.338 0 12.198-23.743 22.087-53.033 22.087-12.213 0-23.454-1.724-32.419-4.614-8.965 2.89-20.205 4.614-32.419 4.614-20.025 0-37.452-4.624-46.477-11.447-7.218 1.532-15.383 2.401-24.041 2.401-13.172 0-25.214-2.004-34.488-5.315-7.522 8.387-26.928 14.361-49.69 14.361-9.443 0-18.303-1.033-25.984-2.835-9.727 4.741-24.179 7.751-40.326 7.751-19.989 0-37.388-4.608-46.426-11.41-9.602 4.011-22.883 6.494-37.558 6.494-26.797 0-48.939-8.28-52.515-19.031-6.52 1.193-13.72 1.859-21.297 1.859-14.096 0-26.898-2.294-36.396-6.03-6.97 8.81-26.879 15.171-50.366 15.171-5.839 0-11.451-.398-16.705-1.125-9.635 5.545-25.29 9.156-42.98 9.156-4.015 0-7.919-.192-11.678-.544-9.326 3.397-21.525 5.46-34.887 5.46-20.388 0-38.078-4.795-46.954-11.822-6.057 1.003-12.654 1.56-19.567 1.56-9.036 0-17.54-.944-24.987-2.603-8.39 7.591-26.804 12.865-48.187 12.865-29.289 0-53.032-9.889-53.032-22.088v-.04c-1.028.025-2.061.04-3.104.04-.471 0-.936-.009-1.404-.014 0 .005.001.009.001.014 0 12.199-23.744 22.088-53.033 22.088-23.763 0-43.874-6.51-50.618-15.481-7.368 1.616-15.755 2.534-24.661 2.534-29.289 0-53.033-9.888-53.033-22.086 0-12.199 23.744-22.088 53.033-22.088 23.763 0 43.874 6.51 50.617 15.481 7.369-1.616 15.756-2.535 24.662-2.535.471 0 .936.01 1.403.016v-.016c0-12.198 23.744-22.086 53.033-22.086s53.032 9.888 53.032 22.086v.041c1.028-.024 2.061-.041 3.104-.041 9.036 0 17.54.944 24.986 2.604 8.391-7.592 26.805-12.865 48.188-12.865 20.388 0 38.078 4.794 46.954 11.821 6.056-1.002 12.654-1.56 19.567-1.56 4.014 0 7.919.192 11.677.544 9.327-3.397 21.525-5.459 34.888-5.459 5.839 0 11.451.398 16.705 1.124 9.634-5.544 25.29-9.155 42.98-9.155 14.096 0 26.897 2.295 36.396 6.031 6.97-8.81 26.879-15.171 50.366-15.171 26.797 0 48.939 8.279 52.516 19.03 6.519-1.193 13.719-1.859 21.296-1.859 19.989 0 37.388 4.607 46.427 11.41 9.601-4.012 22.882-6.495 37.557-6.495 9.444 0 18.304 1.034 25.985 2.835 9.727-4.741 24.178-7.75 40.325-7.75 13.173 0 25.215 2.004 34.488 5.315 7.523-8.387 26.928-14.36 49.69-14.36 20.026 0 37.453 4.624 46.478 11.446 7.218-1.532 15.383-2.401 24.04-2.401 12.214 0 23.454 1.724 32.419 4.613 8.965-2.889 20.206-4.613 32.419-4.613 13.091 0 25.066 1.979 34.316 5.253-.004-.112-.02-.224-.02-.338 0-12.198 23.744-22.086 53.033-22.086 28.875 0 52.344 9.613 53.001 21.573 8.856-2.764 19.856-4.402 31.775-4.402 10.816 0 20.872 1.351 29.259 3.667 8.388-2.316 18.443-3.667 29.26-3.667 13.756 0 26.289 2.182 35.714 5.76 7.227-8.619 26.908-14.805 50.068-14.805 20.115 0 37.613 4.664 46.602 11.537 7.321-1.589 15.636-2.492 24.462-2.492 11.298 0 21.762 1.476 30.366 3.983-.566-1.293-.877-2.622-.877-3.983 0-12.198 23.744-22.087 53.033-22.087s53.032 9.889 53.032 22.087c12.952 0 24.814 1.936 34.023 5.147 9.344-6.296 26.061-10.493 45.14-10.493 14.098 0 26.901 2.295 36.4 6.032 9.688-5.296 24.984-8.717 42.205-8.717 21.483 0 39.968 5.323 48.303 12.972 7.034.135 13.705.842 19.763 2.008 6.762-1.302 14.287-2.034 22.225-2.034 13.265 0 25.381 2.033 34.681 5.386 8.226-5.418 21.949-9.239 37.909-10.107-.001-.065-.011-.129-.011-.194 0-12.198 23.743-22.087 53.032-22.087s53.033 9.889 53.033 22.087c0 11.219-20.089 20.477-46.1 21.893"
                  fill="#2f3318"/>
        </g>
        <g transform="matrix(.34489 0 0 -.35278 578.27 -6.9885)">
            <path d="m0 0c.001.065.012.129.012.194 0 12.199-23.744 22.087-53.033 22.087-13.264 0-25.381-2.032-34.681-5.385-9.397 6.188-25.961 10.301-44.842 10.301-7.938 0-15.463-.732-22.225-2.034-6.761 1.302-14.286 2.034-22.225 2.034-21.483 0-39.968-5.323-48.303-12.972-13.125-.25-24.996-2.489-33.939-6.007-9.687 5.296-24.984 8.717-42.204 8.717-12.952 0-24.814-1.936-34.023-5.148-9.344 6.296-26.061 10.494-45.14 10.494-29.289 0-53.032-9.888-53.032-22.087-11.298 0-21.762-1.476-30.366-3.984.566 1.293.877 2.623.877 3.984 0 12.199-23.744 22.087-53.033 22.087-20.114 0-37.612-4.664-46.601-11.537-7.321 1.589-15.637 2.492-24.463 2.492-13.757 0-26.289-2.182-35.714-5.76-7.227 8.619-26.908 14.805-50.068 14.805-10.817 0-20.872-1.352-29.26-3.667-8.387 2.315-18.443 3.667-29.259 3.667-28.876 0-52.345-9.613-53.002-21.573-8.856 2.764-19.855 4.402-31.774 4.402-13.092 0-25.066-1.98-34.316-5.254.004.113.02.225.02.338 0 12.199-23.743 22.087-53.033 22.087-12.213 0-23.454-1.724-32.419-4.613-8.965 2.889-20.205 4.613-32.419 4.613-20.025 0-37.452-4.624-46.477-11.447-7.218 1.533-15.383 2.402-24.041 2.402-13.172 0-25.214-2.005-34.488-5.316-7.522 8.388-26.928 14.361-49.69 14.361-9.443 0-18.303-1.032-25.984-2.835-9.727 4.741-24.179 7.751-40.326 7.751-19.989 0-37.388-4.608-46.426-11.41-9.602 4.011-22.883 6.494-37.558 6.494-26.797 0-48.939-8.279-52.515-19.03-6.52 1.192-13.72 1.859-21.297 1.859-14.096 0-26.898-2.295-36.396-6.031-6.97 8.81-26.879 15.172-50.366 15.172-5.839 0-11.451-.399-16.705-1.125-9.635 5.544-25.29 9.155-42.98 9.155-4.015 0-7.919-.192-11.678-.544-9.326 3.397-21.525 5.46-34.887 5.46-20.388 0-38.078-4.794-46.954-11.821-6.057 1.002-12.654 1.559-19.567 1.559-9.036 0-17.54-.943-24.987-2.603-8.39 7.592-26.804 12.865-48.187 12.865-29.289 0-53.032-9.889-53.032-22.087v-.041c-1.028.025-2.061.041-3.104.041-.471 0-.936-.01-1.404-.015 0 .005.001.01.001.015 0 12.198-23.744 22.087-53.033 22.087-23.763 0-43.874-6.51-50.618-15.48-7.368 1.615-15.755 2.534-24.661 2.534-29.289 0-53.033-9.889-53.033-22.087 0-12.199 23.744-22.087 53.033-22.087 23.763 0 43.874 6.509 50.617 15.48 7.369-1.615 15.756-2.534 24.662-2.534.471 0 .936.01 1.403.015v-.015c0-12.198 23.744-22.087 53.033-22.087s53.032 9.889 53.032 22.087v.04c1.028-.024 2.061-.04 3.104-.04 9.036 0 17.54.944 24.986 2.603 8.391-7.591 26.805-12.865 48.188-12.865 20.388 0 38.078 4.794 46.954 11.821 6.056-1.002 12.654-1.559 19.567-1.559 4.014 0 7.919.192 11.677.544 9.327-3.397 21.525-5.46 34.888-5.46 5.839 0 11.451.399 16.705 1.125 9.634-5.544 25.29-9.155 42.98-9.155 14.096 0 26.897 2.295 36.396 6.03 6.97-8.809 26.879-15.171 50.366-15.171 26.797 0 48.939 8.279 52.516 19.03 6.519-1.192 13.719-1.859 21.296-1.859 19.989 0 37.388 4.608 46.427 11.41 9.601-4.011 22.882-6.494 37.557-6.494 9.444 0 18.304 1.033 25.985 2.835 9.727-4.741 24.178-7.751 40.325-7.751 13.173 0 25.215 2.005 34.488 5.316 7.523-8.387 26.928-14.361 49.69-14.361 20.026 0 37.453 4.624 46.478 11.447 7.218-1.532 15.383-2.402 24.04-2.402 12.214 0 23.454 1.724 32.419 4.613 8.965-2.889 20.206-4.613 32.419-4.613 13.091 0 25.066 1.979 34.316 5.254-.004-.113-.02-.225-.02-.338 0-12.198 23.744-22.087 53.033-22.087 28.875 0 52.344 9.613 53.001 21.574 8.856-2.765 19.856-4.403 31.775-4.403 10.816 0 20.872 1.352 29.259 3.668 8.388-2.316 18.443-3.668 29.26-3.668 13.756 0 26.289 2.183 35.714 5.76 7.227-8.619 26.908-14.805 50.068-14.805 20.115 0 37.613 4.664 46.602 11.537 7.321-1.589 15.636-2.492 24.462-2.492 11.298 0 21.762 1.476 30.366 3.984-.566-1.293-.877-2.623-.877-3.984 0-12.198 23.744-22.087 53.033-22.087s53.032 9.889 53.032 22.087c12.952 0 24.814 1.936 34.023 5.148 9.344-6.297 26.061-10.494 45.14-10.494 14.098 0 26.901 2.296 36.4 6.033 9.688-5.296 24.984-8.717 42.205-8.717 21.483 0 39.968 5.323 48.303 12.972 7.034.134 13.705.841 19.763 2.008 6.762-1.303 14.287-2.034 22.225-2.034 13.265 0 25.381 2.033 34.681 5.385 8.226-5.417 21.949-9.238 37.909-10.107-.001-.065-.011-.129-.011-.194 0-12.198 23.743-22.087 53.032-22.087s53.033 9.889 53.033 22.087c0 11.219-20.089 20.478-46.1 21.893"
                  fill="#8ca53f"/>
        </g>
        <g transform="matrix(.34489 0 0 -.35278 578.27 -11.305)">
            <path d="m0 0c.001.065.012.129.012.194 0 12.198-23.744 22.087-53.033 22.087-13.264 0-25.381-2.033-34.681-5.385-9.397 6.188-25.961 10.301-44.842 10.301-7.938 0-15.463-.732-22.225-2.034-6.761 1.302-14.286 2.034-22.225 2.034-21.483 0-39.968-5.323-48.303-12.972-13.125-.25-24.996-2.489-33.939-6.007-9.687 5.296-24.984 8.717-42.204 8.717-12.952 0-24.814-1.936-34.023-5.148-9.344 6.296-26.061 10.494-45.14 10.494-29.289 0-53.032-9.889-53.032-22.087-11.298 0-21.762-1.476-30.366-3.984.566 1.293.877 2.623.877 3.984 0 12.198-23.744 22.087-53.033 22.087-20.114 0-37.612-4.664-46.601-11.537-7.321 1.589-15.637 2.492-24.463 2.492-13.757 0-26.289-2.183-35.714-5.76-7.227 8.619-26.908 14.805-50.068 14.805-10.817 0-20.872-1.352-29.26-3.668-8.387 2.316-18.443 3.668-29.259 3.668-28.876 0-52.345-9.614-53.002-21.573-8.856 2.764-19.855 4.402-31.774 4.402-13.092 0-25.066-1.98-34.316-5.254.004.113.02.225.02.338 0 12.198-23.743 22.087-53.033 22.087-12.213 0-23.454-1.724-32.419-4.614-8.965 2.89-20.205 4.614-32.419 4.614-20.025 0-37.452-4.624-46.477-11.447-7.218 1.532-15.383 2.402-24.041 2.402-13.172 0-25.214-2.005-34.488-5.316-7.522 8.387-26.928 14.361-49.69 14.361-9.443 0-18.303-1.033-25.984-2.835-9.727 4.741-24.179 7.751-40.326 7.751-19.989 0-37.388-4.608-46.426-11.41-9.602 4.011-22.883 6.494-37.558 6.494-26.797 0-48.939-8.28-52.515-19.03-6.52 1.192-13.72 1.859-21.297 1.859-14.096 0-26.898-2.295-36.396-6.031-6.97 8.81-26.879 15.171-50.366 15.171-5.839 0-11.451-.398-16.705-1.124-9.635 5.544-25.29 9.155-42.98 9.155-4.015 0-7.919-.192-11.678-.544-9.326 3.397-21.525 5.46-34.887 5.46-20.388 0-38.078-4.795-46.954-11.821-6.057 1.002-12.654 1.559-19.567 1.559-9.036 0-17.54-.944-24.987-2.603-8.39 7.591-26.804 12.865-48.187 12.865-29.289 0-53.032-9.889-53.032-22.087v-.041c-1.028.025-2.061.041-3.104.041-.471 0-.936-.01-1.404-.015 0 .005.001.009.001.015 0 12.198-23.744 22.087-53.033 22.087-23.763 0-43.874-6.51-50.618-15.481-7.368 1.616-15.755 2.534-24.661 2.534-29.289 0-53.033-9.888-53.033-22.086 0-12.199 23.744-22.087 53.033-22.087 23.763 0 43.874 6.509 50.617 15.48 7.369-1.616 15.756-2.535 24.662-2.535.471 0 .936.01 1.403.016v-.016c0-12.198 23.744-22.086 53.033-22.086s53.032 9.888 53.032 22.086v.041c1.028-.024 2.061-.041 3.104-.041 9.036 0 17.54.944 24.986 2.604 8.391-7.592 26.805-12.865 48.188-12.865 20.388 0 38.078 4.794 46.954 11.821 6.056-1.002 12.654-1.56 19.567-1.56 4.014 0 7.919.192 11.677.544 9.327-3.396 21.525-5.459 34.888-5.459 5.839 0 11.451.398 16.705 1.124 9.634-5.544 25.29-9.154 42.98-9.154 14.096 0 26.897 2.294 36.396 6.03 6.97-8.81 26.879-15.171 50.366-15.171 26.797 0 48.939 8.279 52.516 19.03 6.519-1.193 13.719-1.859 21.296-1.859 19.989 0 37.388 4.607 46.427 11.41 9.601-4.012 22.882-6.495 37.557-6.495 9.444 0 18.304 1.034 25.985 2.835 9.727-4.741 24.178-7.75 40.325-7.75 13.173 0 25.215 2.004 34.488 5.315 7.523-8.387 26.928-14.36 49.69-14.36 20.026 0 37.453 4.624 46.478 11.447 7.218-1.532 15.383-2.402 24.04-2.402 12.214 0 23.454 1.724 32.419 4.613 8.965-2.889 20.206-4.613 32.419-4.613 13.091 0 25.066 1.979 34.316 5.253-.004-.112-.02-.224-.02-.338 0-12.198 23.744-22.086 53.033-22.086 28.875 0 52.344 9.613 53.001 21.573 8.856-2.764 19.856-4.402 31.775-4.402 10.816 0 20.872 1.351 29.259 3.667 8.388-2.316 18.443-3.667 29.26-3.667 13.756 0 26.289 2.182 35.714 5.76 7.227-8.619 26.908-14.805 50.068-14.805 20.115 0 37.613 4.664 46.602 11.537 7.321-1.589 15.636-2.492 24.462-2.492 11.298 0 21.762 1.476 30.366 3.983-.566-1.292-.877-2.622-.877-3.983 0-12.198 23.744-22.087 53.033-22.087s53.032 9.889 53.032 22.087c12.952 0 24.814 1.936 34.023 5.148 9.344-6.297 26.061-10.494 45.14-10.494 14.098 0 26.901 2.296 36.4 6.032 9.688-5.296 24.984-8.716 42.205-8.716 21.483 0 39.968 5.322 48.303 12.972 7.034.134 13.705.841 19.763 2.007 6.762-1.302 14.287-2.034 22.225-2.034 13.265 0 25.381 2.034 34.681 5.386 8.226-5.418 21.949-9.239 37.909-10.107-.001-.065-.011-.129-.011-.194 0-12.198 23.743-22.087 53.032-22.087s53.033 9.889 53.033 22.087c0 11.219-20.089 20.477-46.1 21.893"
                  fill="#afc14f"/>
        </g>
    </g>
</svg>
