<svg xmlns="http://www.w3.org/2000/svg" viewBox="0 0 533.33 1000">
    <path fill="#674941" d="M33.33 366.67V433.33H66.67V500H166.67V366.67H33.33z"/>
    <path fill="#fbc899"
          d="M466.37 300H233.33V266.67H200V333.33H166.67V400H200V433.33H233.33V466.67H300V500H366.67V466.67H400V433.33H433.33V400H466.96V366.67H466.37V300z"/>
    <path fill="#674941" d="M133.33 400H166.67V433.33H133.33z"/>
    <path fill="#fff" d="M233.33 200H400V300H233.33z"/>
    <path fill="#6c799c" d="M133.33 533.33H333.33V666.67H133.33zM166.67 700H401.89V866.67H166.67z"/>
    <path fill="#39425f"
          d="M233.33 0H266.67V33.33H233.33zM266.67 0H300V33.33H266.67zM300 0H333.33V33.33H300zM333.33 0H366.67V33.33H333.33zM166.67 33.33H233.33V66.67H166.67zM133.33 66.67H166.67V100H133.33zM100 100H133.33V133.33H100zM33.33 200H66.67V233.33H33.33zM66.67 133.33H100V200H66.67zM366.67 33.33H400V100H366.67zM0 233.33H33.33V300H0z"/>
    <path fill="#33323a"
          d="M100 266.67V233.33H133.33V166.67H166.67V133.33H233.33V100H466.67V133.33H500V200H466.67V233.33H400V200H200V233.33H166.67V300H200V333.33H166.67V366.67H133.33V333.33H100V266.67z"/>
    <path fill="#4c5679"
          d="M33.33 266.67H100V233.33H133.33V166.67H166.67V133.33H233.33V100H366.67V33.33H233.33V66.67H166.67V100H133.33V133.33H100V200H66.67V233.33H33.33V266.67z"/>
    <path fill="#6b789b"
          d="M300 33.33H366.67V66.67H300zM233.33 33.33H266.67V66.67H233.33zM166.67 66.67H233.33V100H166.67zM133.33 100H166.67V133.33H133.33zM100 133.33H133.33V166.67H100z"/>
    <path fill="#fec93f" d="M266.67 33.33H300V100H266.67zM300 66.67H333.33V100H300z"/>
    <path fill="#e8b42d" d="M233.33 66.67H266.67V100H233.33z"/>
    <path fill="#674941"
          d="M0 300H33.33V366.67H0zM33.33 300H66.67V366.67H33.33zM33.33 266.67H66.67V300H33.33zM66.67 333.33H133.33V366.67H66.67z"/>
    <path fill="#fbc899" d="M66.67 266.67H100V333.33H66.67z"/>
    <path fill="#674941" d="M166.67 233.33H200V300H166.67zM200 200H233.33V266.67H200z"/>
    <path fill="#2c231d" d="M266.67 233.33H300V300H266.67zM333.33 233.33H366.67V300H333.33z"/>
    <path fill="#674941"
          d="M166.67 400H233.33V433.33H166.67zM200 433.33H300V466.67H200zM200 466.67H366.67V500H200zM233.33 500H366.67V533.33H233.33zM166.67 433.33H200V500H166.67zM400 433.33H433.33V466.67H400zM366.67 466.67H400V500H366.67z"/>
    <path fill="#83561e" d="M300 533.33H333.33V566.67H300z"/>
    <path fill="#fbc899" d="M300 200H333.33V300H300z"/>
    <path fill="#2c231d" d="M100 400H133.33V466.67H100zM133.33 433.33H166.67V500H133.33z"/>
    <path fill="#39425f" d="M133.33 500H200V533.33H133.33z"/>
    <path fill="#4c5679"
          d="M100 566.67H133.33V666.67H100zM133.33 533.33H166.67V566.67H133.33zM200 833.33H300V866.67H200zM233.33 800H300V833.33H233.33z"/>
    <path fill="#2c231d" d="M166.67 833.33H200V1000H166.67z"/>
    <path fill="#39425f"
          d="M266.67 866.67H366.67V900H266.67zM366.67 800H400V866.67H366.67zM400 633.33H433.33V800H400zM366.67 566.67H400V633.33H366.67zM333.33 533.33H366.67V566.67H333.33z"/>
    <path fill="#e8b42d"
          d="M333.33 633.33H366.67V666.67H333.33zM333.33 700H366.67V733.33H333.33zM333.33 766.67H366.67V800H333.33z"/>
    <path fill="#39425f"
          d="M200 500H233.33V533.33H200zM233.33 533.33H300V566.67H233.33zM333.33 566.67H366.67V600H333.33z"/>
    <path fill="#4c5679" d="M300 800H366.67V833.33H300zM100 633.33H333.33V666.67H100z"/>
    <path fill="#33323a" d="M200 866.67H266.67V966.67H200zM266.67 900H333.33V966.67H266.67z"/>
    <path fill="#2c231d"
          d="M200 966.67H366.67V1000H200zM366.67 933.33H400V1000H366.67zM333.33 900H366.67V933.33H333.33z"/>
    <path fill="#33323a" d="M333.33 933.33H366.67V966.67H333.33z"/>
    <path fill="#fff" d="M400 533.33V566.67H366.67V633.33H400V666.67H466.67V633.33H500V566.67H466.67V533.33H400z"/>
    <path fill="#39425f"
          d="M366.67 533.33H266.67V566.67H333.33V666.67H133.33V700H500V666.67H533.33V600H500V633.33H466.67V666.67H400V633.33H366.67V566.67H400V533.33H499.26V500H366.66V533.33z"/>
    <path fill="#39425f" d="M466.67 533.33H500V566.67H466.67z"/>
    <path fill="#4c5679" d="M166.67 700H333.33V733.33H166.67zM366.67 700H400V733.33H366.67z"/>
    <path fill="#4c5679" d="M166.67 700H233.33V833.33H166.67zM300 566.67H333.33V633.33H300z"/>
    <path fill="#39425f" d="M500 533.33H533.33V600H500zM100 533.33H133.33V666.67H100z"/>
    <path fill="#4c5679" d="M133.33 566.67H166.67V633.33H133.33z"/>
    <path fill="#39425f" d="M166.67 700H200V833.33H166.67z"/>
    <path fill="#674941" d="M300 400H433.33V433.33H300z"/>
    <path fill="#fbc899" d="M300 366.67H366.67V400H300z"/>
    <path fill="#2c231d" d="M66.67 333.33H100V433.33H66.67zM133.33 466.67H233.33V500H133.33z"/>
    <path fill="#674941" d="M400 233.33H433.33V300H400z"/>
    <path fill="#dba87f"
          d="M266.67 333.33H300V400H266.67zM300 366.67H467.48V400H300zM300 433.33H400V466.67H300zM300 200H333.33V233.33H300zM66.67 266.67H100V333.33H66.67z"/>
    <path fill="#2c231d" d="M233.33 500H366.67V533.33H233.33zM233.33 466.67H266.67V500H233.33z"/>
</svg>
