<?xml version="1.0" encoding="UTF-8"?>
<svg width="677.33mm" height="325.51mm" version="1.1" viewBox="0 0 677.33 325.51" xmlns="http://www.w3.org/2000/svg">
    <defs>
        <clipPath id="clipPath46">
            <path d="m-.0045776 442.24h1917.8v-287.44h-1917.8z"/>
        </clipPath>
        <clipPath id="clipPath74">
            <path d="m-.0045929 308.46h1920v-153.66h-1920z"/>
        </clipPath>
        <clipPath id="clipPath90">
            <path d="m-.0045929 259.19h1920v-104.39h-1920z"/>
        </clipPath>
        <clipPath id="clipPath158">
            <path d="m-.0045929 1077.5h1920v-922.71h-1920z"/>
        </clipPath>
    </defs>
    <g transform="translate(179.14 125.8)">
        <path d="m-179.14-125.8v325.39h677.33v-325.39z" fill="#cdebfc"/>
        <g transform="matrix(.35278 0 0 -.35278 -179.14 254.32)">
            <g clip-path="url(#clipPath46)" opacity=".60001">
                <g transform="translate(595.53 252.89)">
                    <path d="m0 0-.04.037c.01 0 .03.007.04.007zm-413.93 3.974c0 .022-.01.037-.01.059l.06-.022zm1667.8 91.433c-7.68-5.18-11.89-5.691-19.1.126-12 9.686-22.62 20.379-37.74 27.949-17 8.502-28.87 8.007-41.93-3.434-6.9-6.06-13.31-12.424-19.9-18.677-19.21-18.211-39.91-14.171-58.32-3.648-9.65 5.513-18.42 12.106-25.65 19.773-14.45 15.339-37.74 20.083-65.691 14.555-30-5.934-53.659-18.958-74.379-35.512-11.69-9.346-13.66-9.176-19.97 2.768-9.901 18.758-18.99 37.754-28.64 56.587-2.36 4.617-5.39 9.064-8.39 13.482-9.61 14.126-21.98 13.801-40.371 3.989-6.039-3.226-10.5-8.073-15.679-12.18-5.071-4.115-7.2-10.279-15.45-12.181-5.41-8.288-14.69-14.023-24.17-19.499-9.75-5.623-20.75-3.352-30.73-.85-19.681 4.921-37.07 12.935-51.56 24.131-11.24 1.805-20.6 6.852-31.16 9.834-10.92.999-21.68.555-32.24-1.894-1.83-1.162-3.65-2.324-5.48-3.486-10.19-2.76-15.9-8.976-21.92-15.125-16.19-16.524-30.49-34.128-50.83-48.284-9.59-6.675-18.74-10.264-28.6-10.789-1.77-.104-3.55-.097-5.36 0-6.5.355-13.38 1.96-20.93 4.81-7.94 2.982-15.79 6.208-23.11 9.93-20.62 10.486-40.07 8.118-59.34-2.02-6.82-3.581-12.51-8.48-20.96-10.241-.56-.163-1.14-.252-1.74-.282-19.57-11.447-43.66-10.892-63.5 1.895-11.77 7.599-23.6 15.259-34.23 23.694-13.34 10.582-29.36 10.323-45.75 7.2-20.7-3.951-38.67-12.15-53.52-23.472-6.94-5.298-10.92-4.137-17.09.525-12.45 9.398-22.4 20.58-37.7 27.972-20.83 10.056-33.33 8.606-47.56-6.201-7.5-7.807-15.92-15.015-25.48-21.497-13.72-9.309-24.41-9.22-38.19.422-20.24 14.163-31.21 32.833-44.25 50.423-7.53 10.153-15.48 20.068-24.47 29.51-15.75 16.532-35.3 18.012-55.54 4.574-3.84-2.553-6.73-6.534-13.34-5.417l-.02.022c.58-2.782-.47-5.261-2.68-7.466-21.91-21.867-37.49-46.538-56.62-69.633-8.77-10.59-11.04-10.464-20.88-.074-11.76 12.431-20.9 26.247-35.72 37.058-13.66 9.976-22.37 9.45-34.05-1.413-8.77-8.155-13.83-17.73-20.12-26.832-16.89-24.435-34.35-25.1-62.05-7.052-17.52 11.411-29.66 26.41-44.45 39.641-26.02 23.288-53.34 24.782-81.36 2.553-13.66-10.841-25.21-23.139-37.81-34.72-8.16-7.489-17.14-14.452-28.51-19.225-17.06-7.163-31.06-5.891-45.13 4.063v-189.88h1917.8v217.43c-28 .185-49.1-10.907-68.41-23.931"
                          fill="#8fb7d1"/>
                </g>
            </g>
        </g>
        <g transform="matrix(.35278 0 0 -.35278 209.43 113.36)">
            <path d="m0 0c-1.77-.14-3.55-.13-5.36 0z" fill="#8fb7d1"/>
        </g>
        <g transform="matrix(.35278 0 0 -.35278 -179.14 254.32)">
            <g clip-path="url(#clipPath74)" opacity=".60001">
                <g transform="translate(1920 154.79)">
                    <path d="m0 0v138.01s-35.839 15.001-83.844 15.001-94.757 5.419-115.18-15.001-46.148-18.002-103.5 0-74.63 21.002-157.5 0-91.871-21.002-121.87-21.002c-30.002 0-102.01-42.005-144.01 0-42.004 42.004-119 15.552-136.01 15.552-17.007 0-78.796-30.386-109.41-30.386-30.611 0-219.6-18.958-238.55 0-18.957 18.957-83.171 30.436-114.63 30.436s-33.071-30.436-98.272-30.436c-65.202 0-130.51 12.197-146.35 28.032s-48.777 23.457-79.826 23.457c-31.048 0-29.986-35.473-66.521-35.473s-57.537-16.016-96.541-16.016h-107.98v-102.17z"
                          fill="#759eb8"/>
                </g>
            </g>
        </g>
        <g transform="matrix(.35278 0 0 -.35278 -179.14 254.32)">
            <g clip-path="url(#clipPath90)" opacity=".60001">
                <g transform="translate(1920 154.79)">
                    <path d="m0 0h-1920v60.012s2.973 16.819 50.978 16.819c48.004 0 78.007 26.348 108.01 13.174 30.003-13.174 71.886-27.298 85.448-27.298s74.991 30.987 99.782 30.987 77.186-52.474 153-52.474c75.812 0 169.98 35.611 212.9 35.611s131.65-14.124 153.3-14.124c21.643 0 81.846-16.192 116.25-16.192s110.19 71.206 125.75 55.659c15.561-15.548 79.672-21.097 124.68-33.135 45.004-12.037 153.74-5.382 238.88 7.792s115.51 28.494 144 0c28.494-28.493 157.17-34.052 187.17-34.052 30.003 0 117.62 27.225 117.62 27.225z"
                          fill="#5f88a2"/>
                </g>
            </g>
        </g>
        <g transform="matrix(.35278 0 0 -.35278 -115.08 -43.983)">
            <path d="m0 0c-18.041-18.041-99.152-48.067-106.64-68.722-10.97-30.277 98.303-85.446 117.42-90.695 34.718-9.534 66.923-7.555 97.775 11.857 9.755 6.138 11.12 24.102 19.014 28.677 48.202 27.929 111.82 4.37 164.7 1.029 32.898-2.078 108.6 1.265 116.73 49.113 8.005 47.117-56.57 47.016-94.908 53.533-82.964 14.101-233.06 53.339-314.09 15.208"
                  fill="#c1deeb"/>
        </g>
        <g transform="matrix(.35278 0 0 -.35278 119.4 -78.555)">
            <path d="m0 0c-16.687-8.486-89.164-28.889-90.604-50.708-1.41-21.362 91.155-37.521 105.95-42.699 31.843-11.147 74.824-46.657 109.17-43.457 33.035 3.078 59.846 49.932 84.576 69.595 55.048 43.769 103.11 55.588 5.884 93.141-69.397 26.803-150.62 7.114-214.98-25.872"
                  fill="#c1deeb"/>
        </g>
        <g transform="matrix(.35278 0 0 -.35278 253.18 -8.7052)">
            <path d="m0 0c-28.4-15.938-88.901-34.187-108.16-62.693-21.339-31.589-9.667-23.119 18.208-41.307 46.609-30.413 160.99-50.001 214.3-34.79 52.212 14.901 98.708 76.209 49.432 114.61-27.713 21.596-141.93 42.054-173.78 24.181"
                  fill="#c1deeb"/>
        </g>
        <g transform="matrix(.35278 0 0 -.35278 421.1 -71.738)">
            <path d="m0 0c-56.704-19.332-161.16-39.451-118.98-92.58 23.842-30.029 99.651-56.482 152.7-59.232 54.157-2.809 162.28 18.498 156.2 67.509-4.734 38.199-137.24 102.26-189.92 84.303"
                  fill="#c1deeb"/>
        </g>
        <g transform="matrix(.35278 0 0 -.35278 -115.08 -49.189)">
            <path d="m0 0c-18.041-18.041-99.152-48.067-106.64-68.722-10.97-30.277 98.303-85.446 117.42-90.695 34.718-9.534 66.923-7.555 97.775 11.857 9.755 6.138 11.12 24.102 19.014 28.677 48.202 27.929 111.82 4.37 164.7 1.029 32.898-2.078 108.6 1.265 116.73 49.113 8.005 47.117-56.57 47.016-94.908 53.533-82.964 14.101-233.06 53.34-314.09 15.208"
                  fill="#f4fafd"/>
        </g>
        <g transform="matrix(.35278 0 0 -.35278 119.4 -83.761)">
            <path d="m0 0c-16.687-8.486-89.164-28.889-90.604-50.708-1.41-21.361 91.155-37.521 105.95-42.699 31.843-11.147 74.824-46.657 109.17-43.457 33.035 3.078 59.846 49.932 84.576 69.595 55.048 43.769 103.11 55.588 5.884 93.141-69.397 26.803-150.62 7.114-214.98-25.872"
                  fill="#f4fafd"/>
        </g>
        <g transform="matrix(.35278 0 0 -.35278 253.18 -13.911)">
            <path d="m0 0c-28.4-15.938-88.901-34.186-108.16-62.693-21.339-31.589-9.667-23.119 18.208-41.307 46.609-30.413 160.99-50.001 214.3-34.789 52.212 14.9 98.708 76.208 49.432 114.61-27.713 21.596-141.93 42.054-173.78 24.181"
                  fill="#f4fafd"/>
        </g>
        <g transform="matrix(.35278 0 0 -.35278 421.1 -76.944)">
            <path d="m0 0c-56.704-19.331-161.16-39.451-118.98-92.58 23.842-30.028 99.651-56.482 152.7-59.232 54.157-2.809 162.28 18.498 156.2 67.509-4.734 38.199-137.24 102.26-189.92 84.303"
                  fill="#f4fafd"/>
        </g>
        <g transform="matrix(.35278 0 0 -.35278 -179.14 254.32)">
            <g clip-path="url(#clipPath158)" opacity=".8">
                <path d="m1920 154.79h-1920v922.71h1920z" fill="#02181e"/>
            </g>
        </g>
        <g transform="matrix(.35278 0 0 -.35278 76.335 145.73)">
            <path d="m0 0v-.039l-.026.033c.006 0 .02.006.026.006" fill="#cdebfc"/>
        </g>
        <g transform="matrix(.35278 0 0 -.35278 76.335 145.73)">
            <path d="m0 0v-.039l-.026.033c.006 0 .02.006.026.006" fill="#8fb7d1"/>
        </g>
        <g transform="matrix(.35278 0 0 -.35278 76.335 145.73)">
            <path d="m0 0v-.039l-.026.033c.006 0 .02.006.026.006" fill="#8fb7d1"/>
        </g>
    </g>
</svg>
