<?xml version="1.0" encoding="UTF-8"?>
<svg width="214.85mm" height="38.883mm" version="1.1" viewBox="0 0 214.85 38.883" xmlns="http://www.w3.org/2000/svg">
    <g transform="translate(-82.142 -152.84)">
        <g transform="matrix(.35278 0 0 -.35278 106.38 168.88)">
            <path d="m0 0v-.039l-.026.033c.006 0 .02.006.026.006" fill="#cdebfc"/>
        </g>
        <g transform="matrix(.35278 0 0 -.35278 106.38 168.88)">
            <path d="m0 0v-.039l-.026.033c.006 0 .02.006.026.006" fill="#8fb7d1"/>
        </g>
        <g transform="matrix(.35278 0 0 -.35278 106.38 168.88)">
            <path d="m0 0v-.039l-.026.033c.006 0 .02.006.026.006" fill="#8fb7d1"/>
        </g>
        <g transform="matrix(.35278 0 0 -.35278 288.32 159.21)">
            <path d="m0 0h-559.87c-5.815 0-10.574-4.758-10.574-10.574v-57.03c0-5.815 4.759-10.573 10.574-10.573h559.87c5.815 0 10.574 4.758 10.574 10.573v57.03c0 5.816-4.759 10.574-10.574 10.574z"
                  fill="none" stroke="#c9c9c9" stroke-miterlimit="10" stroke-width="28"/>
        </g>
        <g transform="matrix(.35278 0 0 -.35278 292.05 159.4)">
            <path d="m0 0v-57.028c0-5.816-4.758-10.574-10.574-10.574h-559.87c-5.816 0-10.574 4.758-10.574 10.574v57.028c0 5.816 4.758 10.574 10.574 10.574h559.87c5.816 0 10.574-4.758 10.574-10.574"
                  fill="#39b54a"/>
        </g>
        <g transform="matrix(.35278 0 0 -.35278 292.05 164.05)">
            <path d="m0 0v-43.844c0-5.816-4.758-10.574-10.574-10.574h-559.87c-5.816 0-10.574 4.758-10.574 10.574v43.844c0 5.816 4.758 10.574 10.574 10.574h559.87c5.816 0 10.574-4.758 10.574-10.574"
                  fill="#39b54a"/>
        </g>
        <g transform="matrix(.35278 0 0 -.35278 288.32 155.67)">
            <path d="m0 0h-559.87c-5.815 0-10.574-4.758-10.574-10.574v-57.03c0-5.815 4.759-10.574 10.574-10.574h559.87c5.815 0 10.574 4.759 10.574 10.574v57.03c0 5.816-4.759 10.574-10.574 10.574z"
                  fill="none" stroke="#fff" stroke-miterlimit="10" stroke-width="16"/>
        </g>
    </g>
</svg>
